<svg xmlns="http://www.w3.org/2000/svg" width="15.324" height="11.977" viewBox="0 0 15.324 11.977">
  <path id="code-solid_3_" data-name="code-solid (3)" d="M11.4,8l-.227.739L8.077,18.784l-.227.739,1.478.454.227-.739L12.646,9.193l.227-.739Zm1.736,3.284.546.546,2.159,2.159-2.159,2.159-.546.546,1.094,1.094.546-.546,2.7-2.7.548-.548-.546-.546-2.7-2.7-.548-.548-1.094,1.094ZM6.5,10.19l-.546.546-2.7,2.7-.548.548.546.546,2.7,2.7.548.548,1.094-1.094-.546-.546L4.888,13.988,7.046,11.83l.546-.546Z" transform="translate(-2.7 -8)" fill="#9ea1ac"/>
</svg>
