<svg xmlns="http://www.w3.org/2000/svg" xmlns:xlink="http://www.w3.org/1999/xlink" width="88" height="88" viewBox="0 0 88 88">
  <defs>
    <filter id="Rectangle_49" x="0" y="0" width="88" height="88" filterUnits="userSpaceOnUse">
      <feOffset dy="3" input="SourceAlpha"/>
      <feGaussianBlur stdDeviation="5" result="blur"/>
      <feFlood flood-opacity="0.09"/>
      <feComposite operator="in" in2="blur"/>
      <feComposite in="SourceGraphic"/>
    </filter>
  </defs>
  <g id="Group_75" data-name="Group 75" transform="translate(-1005 -305)">
    <g id="Group_73" data-name="Group 73" transform="translate(1009.723 309.104)">
      <g id="Group_71" data-name="Group 71">
        <g transform="matrix(1, 0, 0, 1, -4.72, -4.1)" filter="url(#Rectangle_49)">
          <rect id="Rectangle_49-2" data-name="Rectangle 49" width="58" height="58" rx="12" transform="translate(15 12)" fill="#fff"/>
        </g>
      </g>
      <g id="Group_72" data-name="Group 72">
        <path id="Path_81" data-name="Path 81" d="M51.979,51.424H38.656a1.025,1.025,0,0,1-.5-.129,1,1,0,0,1-.377-1.363l15.349-27.17a1.876,1.876,0,0,0,.24-.917V20.507a1.859,1.859,0,0,0-1.86-1.86H27.056a1.861,1.861,0,0,0,0,3.721H39.427a1,1,0,0,1,.875,1.5L24.955,51.03a1.927,1.927,0,0,0-.24.917v1.337a1.864,1.864,0,0,0,1.86,1.863h25.4a1.854,1.854,0,0,0,1.32-.54,1.819,1.819,0,0,0,.54-1.32,1.864,1.864,0,0,0-1.86-1.86M48.541,23.868,33.254,50.918a1.019,1.019,0,0,1-.875.506H30.415a1.025,1.025,0,0,1-.5-.129,1,1,0,0,1-.377-1.363L44.815,22.874a1,1,0,0,1,.866-.506H47.67a1.024,1.024,0,0,1,.5.129,1,1,0,0,1,.472.609,1.033,1.033,0,0,1-.094.763" fill="#8448f5"/>
      </g>
    </g>
  </g>
</svg>
