<svg id="Group_43" data-name="Group 43" xmlns="http://www.w3.org/2000/svg" xmlns:xlink="http://www.w3.org/1999/xlink" width="115.322" height="63.032" viewBox="0 0 115.322 63.032">
  <defs>
    <clipPath id="clip-path">
      <rect id="Rectangle_26" data-name="Rectangle 26" width="115.322" height="63.032" fill="#8f3cfe"/>
    </clipPath>
  </defs>
  <g id="Group_35" data-name="Group 35" transform="translate(0)" clip-path="url(#clip-path)">
    <path id="Path_26" data-name="Path 26" d="M42.238,25.421l-.013.013.043.057c-.009-.022-.022-.048-.03-.07M41.142,54,41,54.24c.061-.061.122-.122.178-.187A.331.331,0,0,1,41.142,54M23.024,52.147c-7.243,0-12.589-5.69-12.589-13.015S15.782,26.113,23.02,26.113a12.264,12.264,0,0,1,11.567,7.73A28.122,28.122,0,0,1,39.041,22.95a23.419,23.419,0,0,0-16.017-5.986C9.831,16.965,0,26.626,0,39.132S9.831,61.291,23.024,61.291a23.633,23.633,0,0,0,15.125-5.2A27.871,27.871,0,0,1,34.3,45.061a12.231,12.231,0,0,1-11.279,7.086m57.82-26.065V38.2s0,.009.009.013V26.065c0,.009,0,.013-.009.017m0,23.82c-.091-.048-.183-.1-.274-.157v9.748c.091.043.183.083.274.122a.015.015,0,0,0,.009,0V49.907s-.009,0-.009,0m20.6-13.259c-6.294-1.3-11.645-1.209-11.645-5.176,0-2.932,2.932-4.224,7.417-4.224a34.293,34.293,0,0,1,15.695,4.306V22.063A36.27,36.27,0,0,0,97.213,18.7c-5.129,0-9.622,1.183-12.832,3.5L83.75,41.1a26.092,26.092,0,0,0,9.152,3.38c6.464,1.383,11.9,1.209,11.9,5.433,0,3.193-3.019,4.572-7.76,4.572A33.579,33.579,0,0,1,83.41,51.264L83.1,60.556a37.914,37.914,0,0,0,13.768,2.475c10,0,18.452-4.4,18.452-13.972,0-8.1-5.777-10.692-13.881-12.415M75.672,0a6.546,6.546,0,0,0-6.555,6.49,6.51,6.51,0,0,0,13.019,0A6.524,6.524,0,0,0,75.672,0m4.9,49.746v9.748c.091.043.183.083.274.122V49.9c-.091-.048-.183-.1-.274-.157" transform="translate(0 0)" fill="#8f3cfe"/>
    <path id="Path_27" data-name="Path 27" d="M172.3,42.15V73.718c-.091-.048-.183-.1-.274-.157v9.748c.091.044.183.083.274.122V86.52H161.86V42.15Z" transform="translate(-91.452 -23.815)" fill="#8f3cfe"/>
    <path id="Path_28" data-name="Path 28" d="M115.948,85.408a34.37,34.37,0,0,1-7.8.918c-8.165,0-15.025-3.158-19.214-8.543a.332.332,0,0,1-.035-.048.078.078,0,0,1-.022-.03c-.148-.187-.287-.374-.422-.565-.035-.048-.07-.1-.1-.144-.122-.17-.235-.339-.344-.513a1.278,1.278,0,0,1-.113-.17c-.109-.161-.209-.322-.3-.487-.043-.074-.087-.144-.131-.217q-.444-.757-.822-1.553c-.078-.161-.157-.326-.222-.492a.148.148,0,0,1-.03-.065c-.052-.117-.1-.235-.152-.352-.078-.178-.148-.357-.217-.535l-.1-.274c-.074-.2-.144-.391-.209-.592-.057-.17-.113-.339-.165-.509a.111.111,0,0,1-.009-.03c-.043-.144-.087-.287-.126-.431-.083-.283-.157-.565-.226-.853-.048-.191-.091-.387-.13-.579a.039.039,0,0,1,0-.022c-.052-.252-.1-.5-.148-.757s-.087-.509-.122-.766q-.046-.287-.078-.574c-.022-.174-.039-.352-.057-.535-.022-.217-.039-.435-.057-.657,0-.1-.013-.2-.017-.3a.33.33,0,0,1,0-.065c-.013-.217-.022-.435-.026-.657,0-.122-.009-.252-.009-.378s0-.252,0-.378a22.379,22.379,0,0,1,5.459-15.086l.044.057c-.009-.022-.022-.048-.03-.07A21.5,21.5,0,0,1,106.165,42a21.153,21.153,0,0,1,8.387,1.675l.4,11.845a9.82,9.82,0,0,0-8.87-5.068,10.934,10.934,0,0,0-10.953,9.313h19.966l.239,7.243H95.125c1.292,7.073,6.9,10.692,14.055,10.692a25.116,25.116,0,0,0,6.477-.97Z" transform="translate(-47.754 -23.73)" fill="#8f3cfe"/>
    <path id="Path_29" data-name="Path 29" d="M97.113,58.51l-.044-.057.013-.013c.009.022.022.048.03.07" transform="translate(-54.845 -33.019)" fill="#8f3cfe"/>
  </g>
</svg>
