<svg id="g8" xmlns="http://www.w3.org/2000/svg" xmlns:xlink="http://www.w3.org/1999/xlink" width="16.862" height="16.862" viewBox="0 0 16.862 16.862">
  <defs>
    <clipPath id="clip-path">
      <path id="path34" d="M18.171-69.36l0-.006a1.129,1.129,0,0,0-.239-.22c-.061-.046-.142-.1-.237-.152a5.244,5.244,0,0,1-1.5-1.3.793.793,0,0,1-.049-.067.667.667,0,0,1-.1-.514,1.64,1.64,0,0,1,.681-.853l.008,0,.008,0a.685.685,0,0,0,.177-.132,2.217,2.217,0,0,0-.927-.157l-.095,0c-2.253-.106-2.515-.233-2.613-.381-.039-.061-.157-.247.332-.932.117-.163,1.563-2.268,1.7-2.492.3-.479.31-.685.291-.718a.138.138,0,0,0-.073-.012,2.455,2.455,0,0,0-.948.342.268.268,0,0,1-.122.031.266.266,0,0,1-.222-.13,4.368,4.368,0,0,1-.188-1.658,6.347,6.347,0,0,0-.226-2.022.259.259,0,0,0-.019-.024s0,0,0,0h0a.107.107,0,0,0-.033,0,7.129,7.129,0,0,0-1.76,1.117c-.88.662-1.309.964-1.574.964a.286.286,0,0,1-.122-.026,1.215,1.215,0,0,1-.415-.428c-.066-.094-.19-.269-.237-.281,0,0-.1.037-.246.436-.18.48-.352,1.136-.5,1.715-.32,1.22-.452,1.655-.682,1.744a.238.238,0,0,1-.087.016.241.241,0,0,1-.132-.04,3.981,3.981,0,0,1-.621-.78c-.362-.5-1.2-1.67-1.481-1.723a.312.312,0,0,0-.02.075c-.125.749-.182,1.09-.736,1.138-.089.008-.273.009-.526.01a6.675,6.675,0,0,0-2.615.251.766.766,0,0,0,.143.291,11.01,11.01,0,0,0,.814,1,10.385,10.385,0,0,1,.774.948A.94.94,0,0,1,3.91-74a.335.335,0,0,1,0,.246c-.084.216-.376.387-.891.522a.12.12,0,0,0,.015.03c.046.07.234.261.977.525.243.087.432.15.58.2.419.141.545.184.639.326a.824.824,0,0,1,.083.186l.021.059c.119.324-.24.6-.62.894a2.093,2.093,0,0,0-.551.524.6.6,0,0,0-.077.343l.008,0L4.1-70.1l0,0a.33.33,0,0,0,.214.116c.067.015.2.033.356.053a5.653,5.653,0,0,1,2.481.743,1.194,1.194,0,0,1,.262.271.544.544,0,0,1,.051.55L6.084-65.318a.881.881,0,0,0,.047.463.05.05,0,0,0,.048.029h.028A1.587,1.587,0,0,0,6.8-64.95l1.465-3.112.025-.023a1.032,1.032,0,0,1,.649-.251.886.886,0,0,1,.277.045,4.65,4.65,0,0,1,2.462,1.763l0,.007,0,.007s.012.021.029.047a.451.451,0,0,0,.156.164c.022-.019.121-.126.191-.622-.026-.687.009-1.529.318-1.678a.847.847,0,0,1,.358-.067,1.643,1.643,0,0,1,.3.028,5.835,5.835,0,0,1,1.126.6c.133.08.258.155.36.215a2.864,2.864,0,0,0,.451.228c0-.016,0-.032,0-.046s0-.051,0-.079c0-.072,0-.174-.009-.282-.026-.556-.03-.85.18-.928a.481.481,0,0,1,.168-.019c.067,0,.158,0,.289.008.17.006.389.014.626.014a4.316,4.316,0,0,0,1.408-.179,2.525,2.525,0,0,0,.541-.252Z" transform="translate(-2.017 80.778)" fill="#9ea1ac"/>
    </clipPath>
  </defs>
  <g id="g10" transform="translate(0 0)">
    <path id="path12" d="M62.439-76.833a7.867,7.867,0,0,1,3.6,6.6,7.832,7.832,0,0,1-.446,2.607c.141.1.268.176.376.241l.111.068a8.39,8.39,0,0,0,.521-2.917,8.434,8.434,0,0,0-4.208-7.292c.022.2.037.432.049.689" transform="translate(-49.736 78.66)" fill="#9ea1ac"/>
    <path id="path14" d="M36.674-21.4A7.869,7.869,0,0,1,30-17.691a7.83,7.83,0,0,1-2.7-.478l-.24.509A8.39,8.39,0,0,0,30-17.129a8.436,8.436,0,0,0,7.379-4.358,4.426,4.426,0,0,1-.707.092" transform="translate(-21.571 33.991)" fill="#9ea1ac"/>
    <path id="path16" d="M4.486-46.551a7.872,7.872,0,0,1-3.924-6.8,7.834,7.834,0,0,1,.409-2.5c-.149-.172-.291-.34-.418-.5a8.386,8.386,0,0,0-.553,3,8.434,8.434,0,0,0,4.253,7.318l.233-.514" transform="translate(0 61.786)" fill="#9ea1ac"/>
    <path id="path18" d="M6.307-78.975a7.867,7.867,0,0,1,6.6-3.6,7.84,7.84,0,0,1,2.4.374c.224-.162.412-.292.572-.4a8.387,8.387,0,0,0-2.968-.541A8.434,8.434,0,0,0,5.62-78.93c.186-.018.415-.033.687-.045" transform="translate(-4.48 83.136)" fill="#9ea1ac"/>
    <g id="g30" transform="translate(0.409 0.478)">
      <g id="g32" clip-path="url(#clip-path)">
        <path id="path46" d="M18.171-69.36l0-.006a1.129,1.129,0,0,0-.239-.22c-.061-.046-.142-.1-.237-.152a5.244,5.244,0,0,1-1.5-1.3.793.793,0,0,1-.049-.067.667.667,0,0,1-.1-.514,1.64,1.64,0,0,1,.681-.853l.008,0,.008,0a.685.685,0,0,0,.177-.132,2.217,2.217,0,0,0-.927-.157l-.095,0c-2.253-.106-2.515-.233-2.613-.381-.039-.061-.157-.247.332-.932.117-.163,1.563-2.268,1.7-2.492.3-.479.31-.685.291-.718a.138.138,0,0,0-.073-.012,2.455,2.455,0,0,0-.948.342.268.268,0,0,1-.122.031.266.266,0,0,1-.222-.13,4.368,4.368,0,0,1-.188-1.658,6.347,6.347,0,0,0-.226-2.022.259.259,0,0,0-.019-.024s0,0,0,0h0a.107.107,0,0,0-.033,0,7.129,7.129,0,0,0-1.76,1.117c-.88.662-1.309.964-1.574.964a.286.286,0,0,1-.122-.026,1.215,1.215,0,0,1-.415-.428c-.066-.094-.19-.269-.237-.281,0,0-.1.037-.246.436-.18.48-.352,1.136-.5,1.715-.32,1.22-.452,1.655-.682,1.744a.238.238,0,0,1-.087.016.241.241,0,0,1-.132-.04,3.981,3.981,0,0,1-.621-.78c-.362-.5-1.2-1.67-1.481-1.723a.312.312,0,0,0-.02.075c-.125.749-.182,1.09-.736,1.138-.089.008-.273.009-.526.01a6.675,6.675,0,0,0-2.615.251.766.766,0,0,0,.143.291,11.01,11.01,0,0,0,.814,1,10.385,10.385,0,0,1,.774.948A.94.94,0,0,1,3.91-74a.335.335,0,0,1,0,.246c-.084.216-.376.387-.891.522a.12.12,0,0,0,.015.03c.046.07.234.261.977.525.243.087.432.15.58.2.419.141.545.184.639.326a.824.824,0,0,1,.083.186l.021.059c.119.324-.24.6-.62.894a2.093,2.093,0,0,0-.551.524.6.6,0,0,0-.077.343l.008,0L4.1-70.1l0,0a.33.33,0,0,0,.214.116c.067.015.2.033.356.053a5.653,5.653,0,0,1,2.481.743,1.194,1.194,0,0,1,.262.271.544.544,0,0,1,.051.55L6.084-65.318a.881.881,0,0,0,.047.463.05.05,0,0,0,.048.029h.028A1.587,1.587,0,0,0,6.8-64.95l1.465-3.112.025-.023a1.032,1.032,0,0,1,.649-.251.886.886,0,0,1,.277.045,4.65,4.65,0,0,1,2.462,1.763l0,.007,0,.007s.012.021.029.047a.451.451,0,0,0,.156.164c.022-.019.121-.126.191-.622-.026-.687.009-1.529.318-1.678a.847.847,0,0,1,.358-.067,1.643,1.643,0,0,1,.3.028,5.835,5.835,0,0,1,1.126.6c.133.08.258.155.36.215a2.864,2.864,0,0,0,.451.228c0-.016,0-.032,0-.046s0-.051,0-.079c0-.072,0-.174-.009-.282-.026-.556-.03-.85.18-.928a.481.481,0,0,1,.168-.019c.067,0,.158,0,.289.008.17.006.389.014.626.014a4.316,4.316,0,0,0,1.408-.179,2.525,2.525,0,0,0,.541-.252" transform="translate(-2.017 80.778)" fill="#9ea1ac"/>
      </g>
    </g>
  </g>
</svg>
