<svg id="Mathematica_Logo" xmlns="http://www.w3.org/2000/svg" width="15.559" height="16.386" viewBox="0 0 15.559 16.386">
  <path id="Path_7" data-name="Path 7" d="M16.846,10.759,14.612,8.193l2.234-2.566-3.31-.662.331-3.393L10.805,2.9,9.067,0,7.329,2.9,4.267,1.572,4.6,4.965l-3.31.662L3.522,8.193,1.288,10.759l3.31.662-.331,3.393L7.329,13.49l1.738,2.9,1.738-2.9,3.062,1.324-.331-3.393" transform="translate(-1.288)" fill="#9da1ad"/>
  <path id="Path_8" data-name="Path 8" d="M41.1,53.832a3.684,3.684,0,0,1-1.9.5,3.21,3.21,0,0,1-1.821-.5,4.967,4.967,0,0,1-.083,1.9,3.569,3.569,0,0,1-1.076,1.572,5.127,5.127,0,0,1,1.738.662A5.285,5.285,0,0,1,39.2,59.543a3.783,3.783,0,0,1,1.159-1.49,3.863,3.863,0,0,1,1.821-.662A9.2,9.2,0,0,1,41.1,55.736,3.337,3.337,0,0,1,41.1,53.832Zm-1.076,3.641a3.086,3.086,0,0,0-.828.91l-.828-.91-1.076-.414a4.472,4.472,0,0,0,.579-1.159,2.63,2.63,0,0,0,.166-1.159,3.39,3.39,0,0,0,1.159.248,4.1,4.1,0,0,0,1.159-.248,2.2,2.2,0,0,0,.083,1.241A4.078,4.078,0,0,0,41.1,57.06Zm2.317-2.234a20.273,20.273,0,0,1,.414-3.724S40.6,53,39.112,53a7.652,7.652,0,0,1-3.476-1.49,8.4,8.4,0,0,1,.248,3.724c-.331,1.407-2.4,3.062-2.4,3.062s2.648.083,3.641.828c1.076.662,2.069,3.31,2.069,3.31a16.215,16.215,0,0,1,1.9-3.31,18.824,18.824,0,0,1,3.807-.91A20.836,20.836,0,0,1,42.34,55.239Zm-1.572,3.393A4.679,4.679,0,0,0,39.2,60.95a7.637,7.637,0,0,0-1.655-2.4,7.122,7.122,0,0,0-2.648-.745,6.042,6.042,0,0,0,1.738-2.317,6.342,6.342,0,0,0-.083-2.731,6.409,6.409,0,0,0,2.566.91,7,7,0,0,0,2.731-.91,5.3,5.3,0,0,0-.083,2.731A6.877,6.877,0,0,0,43.5,57.8a6.14,6.14,0,0,0-2.731.828" transform="translate(-31.416 -48.205)" fill="#fff"/>
</svg>
