<svg xmlns="http://www.w3.org/2000/svg" xmlns:xlink="http://www.w3.org/1999/xlink" width="589.655" height="757.322" viewBox="0 0 589.655 757.322">
  <defs>
    <linearGradient id="linear-gradient" x1="0.957" y1="-0.158" x2="0.177" y2="1.179" gradientUnits="objectBoundingBox">
      <stop offset="0" stop-color="#706aff"/>
      <stop offset="1" stop-color="#5b5bcb"/>
    </linearGradient>
    <filter id="Path_39" x="173.065" y="0" width="257.85" height="386.94" filterUnits="userSpaceOnUse">
      <feOffset dy="3" input="SourceAlpha"/>
      <feGaussianBlur stdDeviation="16" result="blur"/>
      <feFlood flood-color="#6d41d0" flood-opacity="0.463"/>
      <feComposite operator="in" in2="blur"/>
      <feComposite in="SourceGraphic"/>
    </filter>
  </defs>
  <g id="Group_44" data-name="Group 44" transform="translate(-6140.935 1247.28)">
    <path id="Path_50" data-name="Path 50" d="M14.793,58.945l16.135-3.01L29.957,0,.774,13.858.6,24.455,14.8,17.73Z" transform="translate(6222.686 -878.592)" fill="#9ca0af" opacity="0.519"/>
    <g transform="matrix(1, 0, 0, 1, 6140.93, -1247.28)" filter="url(#Path_39)">
      <path id="Path_39-2" data-name="Path 39" d="M51.48-86.97h54.99v-29.25c38.22-5.07,77.22-37.44,77.22-84.63,0-48.75-40.95-85.8-95.55-85.8-24.18,0-49.92,8.19-66.3,19.5l7.41,55.38c17.94-11.7,38.22-18.72,53.82-18.72,24.18,0,38.22,15.21,38.22,34.32,0,29.64-32.76,39.78-79.17,39.78ZM49.92-29.64c0,18.72,15.6,33.93,34.32,33.93s34.32-15.21,34.32-33.93-15.6-33.93-34.32-33.93S49.92-48.36,49.92-29.64Z" transform="translate(199.23 331.65)" fill="url(#linear-gradient)"/>
    </g>
    <path id="Path_41" data-name="Path 41" d="M38.883-12.92l6.029-31.869h9.2L44.174,0h-9.29L27.593-29.962,20.3,0h-9.29L1.077-44.789h9.2l6.06,31.808,7.383-31.808h7.813ZM73.828.615a16.34,16.34,0,0,1-11.92-4.491q-4.6-4.491-4.6-11.966V-16.7a20.107,20.107,0,0,1,1.938-8.967,14.223,14.223,0,0,1,5.491-6.091A15.412,15.412,0,0,1,72.844-33.9q6.829,0,10.751,4.307T87.517-17.38v3.63H66.322a8.259,8.259,0,0,0,2.6,5.229,7.858,7.858,0,0,0,5.491,1.969,9.6,9.6,0,0,0,8.029-3.722L86.81-5.383A13.346,13.346,0,0,1,81.4-.969,17.763,17.763,0,0,1,73.828.615ZM72.813-26.7a5.567,5.567,0,0,0-4.291,1.784,9.218,9.218,0,0,0-2.107,5.106H78.781v-.708a6.572,6.572,0,0,0-1.6-4.568A5.746,5.746,0,0,0,72.813-26.7Zm20.333-4.337-4.184-2.43A16.426,16.426,0,0,0,91.7-42.051v-5.2h7.075v4.768a14.053,14.053,0,0,1-1.538,6A16.491,16.491,0,0,1,93.146-31.039Zm30.608,6.091a24.152,24.152,0,0,0-3.2-.246q-5.045,0-6.614,3.415V0h-8.89V-33.284h8.4l.246,3.968q2.676-4.583,7.414-4.583a9.315,9.315,0,0,1,2.769.4ZM143.35.615a16.34,16.34,0,0,1-11.92-4.491q-4.6-4.491-4.6-11.966V-16.7a20.107,20.107,0,0,1,1.938-8.967,14.223,14.223,0,0,1,5.491-6.091,15.412,15.412,0,0,1,8.106-2.138q6.829,0,10.751,4.307t3.922,12.212v3.63H135.844a8.259,8.259,0,0,0,2.6,5.229,7.858,7.858,0,0,0,5.491,1.969,9.6,9.6,0,0,0,8.029-3.722l4.368,4.891a13.346,13.346,0,0,1-5.414,4.414A17.763,17.763,0,0,1,143.35.615ZM142.334-26.7a5.567,5.567,0,0,0-4.291,1.784,9.218,9.218,0,0,0-2.107,5.106H148.3v-.708a6.572,6.572,0,0,0-1.6-4.568A5.746,5.746,0,0,0,142.334-26.7Zm34.053,9.751a19.739,19.739,0,0,1,1.907-8.829,13.962,13.962,0,0,1,5.491-6,16.02,16.02,0,0,1,8.321-2.123,15.156,15.156,0,0,1,11,4.122q4.26,4.122,4.753,11.2l.062,2.276q0,7.66-4.276,12.289T192.168.615q-7.2,0-11.49-4.614T176.388-16.55Zm8.89.646q0,4.737,1.784,7.244a5.889,5.889,0,0,0,5.106,2.507,5.9,5.9,0,0,0,5.045-2.476q1.815-2.476,1.815-7.921,0-4.645-1.815-7.2a5.9,5.9,0,0,0-5.106-2.553,5.806,5.806,0,0,0-5.045,2.538Q185.278-21.625,185.278-16.3Zm48.05,12.92a11.149,11.149,0,0,1-9.105,4q-5.353,0-8.167-3.076t-2.876-9.013v-21.81h8.89v21.5q0,5.2,4.737,5.2,4.522,0,6.214-3.138V-33.284h8.921V0h-8.367Zm25.963-38.083v8.183h5.691v6.521h-5.691v16.611A3.966,3.966,0,0,0,260-7.506a3.553,3.553,0,0,0,2.707.8,14.177,14.177,0,0,0,2.615-.215V-.185a18.3,18.3,0,0,1-5.383.8q-9.352,0-9.536-9.444V-26.763h-4.86v-6.521h4.86v-8.183ZM284.238-16.95a19.739,19.739,0,0,1,1.907-8.829,13.962,13.962,0,0,1,5.491-6,16.02,16.02,0,0,1,8.321-2.123,15.156,15.156,0,0,1,11,4.122q4.26,4.122,4.753,11.2l.062,2.276q0,7.66-4.276,12.289T300.019.615q-7.2,0-11.49-4.614T284.238-16.55Zm8.89.646q0,4.737,1.784,7.244a5.889,5.889,0,0,0,5.106,2.507,5.9,5.9,0,0,0,5.045-2.476q1.815-2.476,1.815-7.921,0-4.645-1.815-7.2a5.9,5.9,0,0,0-5.106-2.553,5.806,5.806,0,0,0-5.045,2.538Q293.128-21.625,293.128-16.3ZM323.675,0V-26.763h-4.953v-6.521h4.953v-2.83q0-5.6,3.215-8.69t9-3.092a20.783,20.783,0,0,1,4.522.615l-.092,6.891a11.334,11.334,0,0,0-2.707-.277q-5.014,0-5.014,4.707v2.676h6.614v6.521H332.6V0Zm45.22,0h-8.921V-33.284h8.921Zm-9.444-41.9a4.378,4.378,0,0,1,1.338-3.292,5.027,5.027,0,0,1,3.645-1.292,5.038,5.038,0,0,1,3.63,1.292,4.353,4.353,0,0,1,1.354,3.292,4.365,4.365,0,0,1-1.369,3.322,5.051,5.051,0,0,1-3.615,1.292,5.051,5.051,0,0,1-3.615-1.292A4.365,4.365,0,0,1,359.451-41.9Zm15.381,25.009q0-7.783,3.491-12.4a11.328,11.328,0,0,1,9.552-4.614,10.194,10.194,0,0,1,8.029,3.63V-47.25h8.921V0H396.8l-.431-3.538A10.462,10.462,0,0,1,387.813.615a11.3,11.3,0,0,1-9.428-4.63Q374.832-8.644,374.832-16.888Zm8.89.646q0,4.676,1.63,7.167a5.313,5.313,0,0,0,4.737,2.492,5.95,5.95,0,0,0,5.814-3.476V-23.194a5.864,5.864,0,0,0-5.752-3.476Q383.722-26.67,383.722-16.242ZM427.034.615a16.34,16.34,0,0,1-11.92-4.491q-4.6-4.491-4.6-11.966V-16.7a20.107,20.107,0,0,1,1.938-8.967,14.223,14.223,0,0,1,5.491-6.091A15.412,15.412,0,0,1,426.05-33.9q6.829,0,10.751,4.307t3.922,12.212v3.63H419.528a8.259,8.259,0,0,0,2.6,5.229,7.858,7.858,0,0,0,5.491,1.969,9.6,9.6,0,0,0,8.029-3.722l4.368,4.891A13.346,13.346,0,0,1,434.6-.969,17.763,17.763,0,0,1,427.034.615ZM426.019-26.7a5.567,5.567,0,0,0-4.291,1.784,9.218,9.218,0,0,0-2.107,5.106h12.366v-.708a6.572,6.572,0,0,0-1.6-4.568A5.746,5.746,0,0,0,426.019-26.7ZM465.056,0a9.872,9.872,0,0,1-.892-2.984,10.757,10.757,0,0,1-8.4,3.6,11.818,11.818,0,0,1-8.106-2.83,9.1,9.1,0,0,1-3.215-7.137,9.406,9.406,0,0,1,3.922-8.121q3.922-2.83,11.336-2.861h4.091v-1.907a5.485,5.485,0,0,0-1.184-3.691,4.659,4.659,0,0,0-3.738-1.384,5.3,5.3,0,0,0-3.522,1.077,3.658,3.658,0,0,0-1.277,2.953h-8.89a8.93,8.93,0,0,1,1.784-5.353,11.794,11.794,0,0,1,5.045-3.861,18.386,18.386,0,0,1,7.321-1.4q6.152,0,9.767,3.092t3.615,8.69V-7.69a15.912,15.912,0,0,0,1.323,7.167V0ZM457.7-6.183a7.657,7.657,0,0,0,3.63-.877,5.758,5.758,0,0,0,2.461-2.353v-5.722h-3.322q-6.675,0-7.106,4.614l-.031.523A3.559,3.559,0,0,0,454.5-7.26,4.541,4.541,0,0,0,457.7-6.183ZM497.571-9.2a2.864,2.864,0,0,0-1.615-2.569,18.345,18.345,0,0,0-5.183-1.677Q478.9-15.935,478.9-23.533a9.146,9.146,0,0,1,3.676-7.4,14.829,14.829,0,0,1,9.613-2.969q6.337,0,10.136,2.984a9.4,9.4,0,0,1,3.8,7.752h-8.89A4.3,4.3,0,0,0,496-26.317a5.207,5.207,0,0,0-3.845-1.246,5.321,5.321,0,0,0-3.476,1.015,3.2,3.2,0,0,0-1.23,2.584,2.739,2.739,0,0,0,1.4,2.384,14.4,14.4,0,0,0,4.722,1.569,38.568,38.568,0,0,1,5.6,1.492q7.044,2.584,7.044,8.952A8.682,8.682,0,0,1,502.308-2.2,16.853,16.853,0,0,1,492.218.615a17.6,17.6,0,0,1-7.429-1.492A12.465,12.465,0,0,1,479.7-4.968a9.506,9.506,0,0,1-1.846-5.614h8.429a4.641,4.641,0,0,0,1.753,3.63A6.955,6.955,0,0,0,492.4-5.691a6.437,6.437,0,0,0,3.861-.969A3.015,3.015,0,0,0,497.571-9.2Zm23.41-4.553H513.6l-1.046-31.039h9.475Zm-3.691,4.86A4.982,4.982,0,0,1,520.9-7.567a4.5,4.5,0,0,1,1.369,3.384A4.464,4.464,0,0,1,520.9-.831,4.982,4.982,0,0,1,517.289.492a4.94,4.94,0,0,1-3.584-1.323,4.464,4.464,0,0,1-1.369-3.353,4.514,4.514,0,0,1,1.369-3.368A4.908,4.908,0,0,1,517.289-8.89Z" transform="translate(6180 -606)" fill="#121129"/>
    <path id="Path_40" data-name="Path 40" d="M-281.322-7.4l.451,3.094.661-2.788,4.641-16.371h2.61l4.528,16.371.645,2.836.5-3.158,3.642-16.049h3.11L-266.224,0h-2.82l-4.834-17.1-.371-1.789-.371,1.789L-279.63,0h-2.82l-5.672-23.461h3.094ZM-250.336.322A7.618,7.618,0,0,1-256.1-2.006a8.642,8.642,0,0,1-2.224-6.228v-.548a10.462,10.462,0,0,1,.991-4.633,7.73,7.73,0,0,1,2.771-3.19,6.968,6.968,0,0,1,3.859-1.152,6.53,6.53,0,0,1,5.285,2.24A9.7,9.7,0,0,1-243.536-9.1v1.241h-11.811A6.2,6.2,0,0,0-253.841-3.7a4.736,4.736,0,0,0,3.666,1.587,5.192,5.192,0,0,0,2.675-.645,6.721,6.721,0,0,0,1.917-1.708l1.821,1.418A7.321,7.321,0,0,1-250.336.322Zm-.371-15.63a3.976,3.976,0,0,0-3.029,1.313,6.383,6.383,0,0,0-1.515,3.682h8.733v-.226a5.678,5.678,0,0,0-1.225-3.521A3.744,3.744,0,0,0-250.707-15.308Zm25.781,13.2a4.294,4.294,0,0,0,2.788-.967,3.4,3.4,0,0,0,1.321-2.417H-218a5.406,5.406,0,0,1-1.031,2.852,6.792,6.792,0,0,1-2.538,2.159,7.323,7.323,0,0,1-3.36.806,7.182,7.182,0,0,1-5.664-2.377,9.466,9.466,0,0,1-2.1-6.5v-.5a10.5,10.5,0,0,1,.935-4.528,7.118,7.118,0,0,1,2.683-3.078,7.621,7.621,0,0,1,4.133-1.1A6.992,6.992,0,0,1-220.067-16,6.277,6.277,0,0,1-218-11.44h-2.82a4.108,4.108,0,0,0-1.281-2.78,3.985,3.985,0,0,0-2.844-1.088,4.172,4.172,0,0,0-3.521,1.635,7.681,7.681,0,0,0-1.249,4.729v.564a7.528,7.528,0,0,0,1.241,4.641A4.192,4.192,0,0,0-224.925-2.111Zm9.491-6.768a10.3,10.3,0,0,1,1.007-4.608,7.513,7.513,0,0,1,2.8-3.158,7.632,7.632,0,0,1,4.1-1.112,7.352,7.352,0,0,1,5.76,2.465,9.485,9.485,0,0,1,2.2,6.558v.209a10.387,10.387,0,0,1-.975,4.568,7.4,7.4,0,0,1-2.788,3.15A7.72,7.72,0,0,1-207.491.322a7.334,7.334,0,0,1-5.744-2.465,9.437,9.437,0,0,1-2.2-6.526Zm3,.354a7.459,7.459,0,0,0,1.345,4.657,4.306,4.306,0,0,0,3.6,1.756,4.28,4.28,0,0,0,3.609-1.781,8.156,8.156,0,0,0,1.337-4.987,7.446,7.446,0,0,0-1.362-4.649,4.329,4.329,0,0,0-3.617-1.781,4.281,4.281,0,0,0-3.561,1.756A8.1,8.1,0,0,0-212.437-8.524Zm27.376,6.8A6.332,6.332,0,0,1-190.169.322,5.42,5.42,0,0,1-194.415-1.3a7.009,7.009,0,0,1-1.474-4.794V-17.435h2.981V-6.171q0,3.964,3.223,3.964,3.416,0,4.544-2.546V-17.435h2.981V0H-185ZM-174.394,0h-2.981V-24.75h2.981Zm4.044-8.862a10.213,10.213,0,0,1,1.9-6.453,6.013,6.013,0,0,1,4.979-2.441,6.047,6.047,0,0,1,4.85,2.095V-24.75h2.981V0h-2.739l-.145-1.869A6.071,6.071,0,0,1-163.5.322a5.955,5.955,0,0,1-4.939-2.481,10.329,10.329,0,0,1-1.909-6.478Zm2.981.338a7.733,7.733,0,0,0,1.225,4.641,3.959,3.959,0,0,0,3.384,1.676,4.349,4.349,0,0,0,4.141-2.546v-8.008a4.382,4.382,0,0,0-4.109-2.465,3.978,3.978,0,0,0-3.416,1.692A8.514,8.514,0,0,0-167.369-8.524Zm19.175-8.911.1,2.191a6.353,6.353,0,0,1,5.221-2.514q5.527,0,5.575,6.236V0h-2.981V-11.537a4.014,4.014,0,0,0-.862-2.788,3.455,3.455,0,0,0-2.635-.9,4.3,4.3,0,0,0-2.546.773,5.252,5.252,0,0,0-1.708,2.03V0h-2.981V-17.435Zm14.309.58-1.692-1.16a7.757,7.757,0,0,0,1.547-4.415v-2.32h2.949v2.095a7.452,7.452,0,0,1-.8,3.215A7.417,7.417,0,0,1-133.885-16.854Zm10.425-4.8v4.222h3.255v2.3h-3.255V-4.318a2.415,2.415,0,0,0,.435,1.571,1.832,1.832,0,0,0,1.482.524,7.217,7.217,0,0,0,1.418-.193V0a8.642,8.642,0,0,1-2.288.322,3.712,3.712,0,0,1-3.013-1.208,5.192,5.192,0,0,1-1.015-3.432V-15.13h-3.174v-2.3h3.174v-4.222ZM-107.556,0V-15.13h-2.755v-2.3h2.755v-1.482a6.057,6.057,0,0,1,1.668-4.544,6.467,6.467,0,0,1,4.713-1.627,14.192,14.192,0,0,1,4.56.983l-.5,2.514a10.328,10.328,0,0,0-3.835-.806,3.752,3.752,0,0,0-2.763.862,3.554,3.554,0,0,0-.846,2.586v1.515H-101v2.3h-3.561V0Zm12.423,0h-3V-17.435h3Zm7.67-17.435.1,2.191a6.353,6.353,0,0,1,5.221-2.514q5.527,0,5.575,6.236V0h-2.981V-11.537a4.014,4.014,0,0,0-.862-2.788,3.455,3.455,0,0,0-2.635-.9,4.3,4.3,0,0,0-2.546.773,5.252,5.252,0,0,0-1.708,2.03V0h-2.981V-17.435ZM-72.8-8.862a10.213,10.213,0,0,1,1.9-6.453,6.013,6.013,0,0,1,4.979-2.441,6.047,6.047,0,0,1,4.85,2.095V-24.75h2.981V0h-2.739l-.145-1.869A6.071,6.071,0,0,1-65.952.322,5.955,5.955,0,0,1-70.89-2.159,10.329,10.329,0,0,1-72.8-8.637Zm2.981.338a7.733,7.733,0,0,0,1.225,4.641A3.959,3.959,0,0,0-65.21-2.208a4.349,4.349,0,0,0,4.141-2.546v-8.008a4.382,4.382,0,0,0-4.109-2.465,3.978,3.978,0,0,0-3.416,1.692A8.514,8.514,0,0,0-69.819-8.524ZM-34.531,0a6.262,6.262,0,0,1-.419-1.837A6.651,6.651,0,0,1-39.913.322a6.154,6.154,0,0,1-4.23-1.458,4.718,4.718,0,0,1-1.652-3.7,4.929,4.929,0,0,1,2.071-4.23A9.762,9.762,0,0,1-37.9-10.57H-35v-1.37a3.348,3.348,0,0,0-.935-2.49,3.756,3.756,0,0,0-2.755-.927,4.347,4.347,0,0,0-2.675.806,2.374,2.374,0,0,0-1.08,1.95h-3a4.114,4.114,0,0,1,.927-2.522A6.324,6.324,0,0,1-42-17.048a8.456,8.456,0,0,1,3.489-.709A6.892,6.892,0,0,1-33.79-16.25,5.435,5.435,0,0,1-32.017-12.1v8.024A9.811,9.811,0,0,0-31.4-.258V0Zm-4.947-2.272A5.239,5.239,0,0,0-36.819-3,4.386,4.386,0,0,0-35-4.882V-8.459h-2.336q-5.479,0-5.479,3.207a2.714,2.714,0,0,0,.935,2.191A3.592,3.592,0,0,0-39.478-2.272Zm23.106-15.163.081,1.934a6.439,6.439,0,0,1,5.172-2.256q3.658,0,4.979,2.8a6.6,6.6,0,0,1,2.264-2.03,6.687,6.687,0,0,1,3.3-.773q5.736,0,5.833,6.075V0H2.272V-11.5a4,4,0,0,0-.854-2.8,3.761,3.761,0,0,0-2.868-.927,3.953,3.953,0,0,0-2.755.991,4.02,4.02,0,0,0-1.273,2.667V0h-3V-11.424q0-3.8-3.722-3.8a3.988,3.988,0,0,0-4.012,2.5V0h-2.981V-17.435ZM20.512,0a6.262,6.262,0,0,1-.419-1.837A6.651,6.651,0,0,1,15.13.322,6.154,6.154,0,0,1,10.9-1.136a4.718,4.718,0,0,1-1.652-3.7,4.929,4.929,0,0,1,2.071-4.23,9.762,9.762,0,0,1,5.825-1.507h2.9v-1.37a3.348,3.348,0,0,0-.935-2.49,3.756,3.756,0,0,0-2.755-.927,4.347,4.347,0,0,0-2.675.806A2.374,2.374,0,0,0,12.6-12.6h-3a4.114,4.114,0,0,1,.927-2.522,6.324,6.324,0,0,1,2.514-1.926,8.456,8.456,0,0,1,3.489-.709,6.892,6.892,0,0,1,4.721,1.507A5.435,5.435,0,0,1,23.026-12.1v8.024a9.811,9.811,0,0,0,.612,3.819V0ZM15.565-2.272A5.239,5.239,0,0,0,18.224-3a4.386,4.386,0,0,0,1.821-1.885V-8.459H17.708q-5.479,0-5.479,3.207a2.714,2.714,0,0,0,.935,2.191A3.592,3.592,0,0,0,15.565-2.272ZM31.743-21.656v4.222H35v2.3H31.743V-4.318a2.415,2.415,0,0,0,.435,1.571,1.832,1.832,0,0,0,1.482.524,7.217,7.217,0,0,0,1.418-.193V0a8.642,8.642,0,0,1-2.288.322A3.712,3.712,0,0,1,29.777-.886a5.192,5.192,0,0,1-1.015-3.432V-15.13H25.588v-2.3h3.174v-4.222ZM45.472-2.111a4.294,4.294,0,0,0,2.788-.967,3.4,3.4,0,0,0,1.321-2.417H52.4a5.406,5.406,0,0,1-1.031,2.852A6.792,6.792,0,0,1,48.831-.483a7.323,7.323,0,0,1-3.36.806,7.182,7.182,0,0,1-5.664-2.377,9.466,9.466,0,0,1-2.1-6.5v-.5a10.5,10.5,0,0,1,.935-4.528,7.118,7.118,0,0,1,2.683-3.078,7.621,7.621,0,0,1,4.133-1.1A6.992,6.992,0,0,1,50.33-16,6.277,6.277,0,0,1,52.4-11.44h-2.82A4.108,4.108,0,0,0,48.3-14.22a3.985,3.985,0,0,0-2.844-1.088,4.172,4.172,0,0,0-3.521,1.635,7.681,7.681,0,0,0-1.249,4.729v.564a7.528,7.528,0,0,0,1.241,4.641A4.192,4.192,0,0,0,45.472-2.111ZM58.733-15.324a6.338,6.338,0,0,1,5.156-2.433q5.527,0,5.575,6.236V0H66.483V-11.537a4.014,4.014,0,0,0-.862-2.788,3.455,3.455,0,0,0-2.635-.9,4.3,4.3,0,0,0-2.546.773,5.252,5.252,0,0,0-1.708,2.03V0H55.752V-24.75h2.981ZM83.563,0V-15.13H80.808v-2.3h2.755v-1.789a5.937,5.937,0,0,1,1.5-4.334A5.661,5.661,0,0,1,89.3-25.088a7.823,7.823,0,0,1,2.046.274L91.185-22.4a8.561,8.561,0,0,0-1.611-.145,2.913,2.913,0,0,0-2.24.846,3.424,3.424,0,0,0-.79,2.425v1.837h3.722v2.3H86.544V0Zm9.2-8.878a10.3,10.3,0,0,1,1.007-4.608,7.513,7.513,0,0,1,2.8-3.158,7.632,7.632,0,0,1,4.1-1.112,7.352,7.352,0,0,1,5.76,2.465,9.485,9.485,0,0,1,2.2,6.558v.209a10.387,10.387,0,0,1-.975,4.568,7.4,7.4,0,0,1-2.788,3.15A7.72,7.72,0,0,1,100.708.322a7.334,7.334,0,0,1-5.744-2.465,9.437,9.437,0,0,1-2.2-6.526Zm3,.354a7.459,7.459,0,0,0,1.345,4.657,4.306,4.306,0,0,0,3.6,1.756,4.28,4.28,0,0,0,3.609-1.781,8.156,8.156,0,0,0,1.337-4.987,7.446,7.446,0,0,0-1.362-4.649,4.329,4.329,0,0,0-3.617-1.781,4.281,4.281,0,0,0-3.561,1.756A8.1,8.1,0,0,0,95.761-8.524ZM120.8-14.76a8.933,8.933,0,0,0-1.466-.113,3.928,3.928,0,0,0-3.98,2.5V0h-2.981V-17.435h2.9l.048,2.014a4.642,4.642,0,0,1,4.157-2.336,3.045,3.045,0,0,1,1.321.226ZM137.414-4.367l4.061-13.068h3.19L137.656,2.691q-1.627,4.351-5.172,4.351l-.564-.048-1.112-.209V4.367l.806.064a3.967,3.967,0,0,0,2.361-.612,4.431,4.431,0,0,0,1.394-2.24l.661-1.772-6.22-17.241h3.255Zm9.12-4.512a10.3,10.3,0,0,1,1.007-4.608,7.513,7.513,0,0,1,2.8-3.158,7.632,7.632,0,0,1,4.1-1.112,7.352,7.352,0,0,1,5.76,2.465,9.485,9.485,0,0,1,2.2,6.558v.209a10.387,10.387,0,0,1-.975,4.568,7.4,7.4,0,0,1-2.788,3.15A7.72,7.72,0,0,1,154.478.322a7.334,7.334,0,0,1-5.744-2.465,9.437,9.437,0,0,1-2.2-6.526Zm3,.354a7.459,7.459,0,0,0,1.345,4.657,4.306,4.306,0,0,0,3.6,1.756,4.28,4.28,0,0,0,3.609-1.781,8.156,8.156,0,0,0,1.337-4.987,7.446,7.446,0,0,0-1.362-4.649,4.329,4.329,0,0,0-3.617-1.781,4.281,4.281,0,0,0-3.561,1.756A8.1,8.1,0,0,0,149.531-8.524Zm27.376,6.8A6.332,6.332,0,0,1,171.8.322,5.42,5.42,0,0,1,167.554-1.3a7.009,7.009,0,0,1-1.474-4.794V-17.435h2.981V-6.171q0,3.964,3.223,3.964,3.416,0,4.544-2.546V-17.435h2.981V0h-2.836ZM192.763-14.76a8.933,8.933,0,0,0-1.466-.113,3.928,3.928,0,0,0-3.98,2.5V0h-2.981V-17.435h2.9l.048,2.014a4.642,4.642,0,0,1,4.157-2.336,3.045,3.045,0,0,1,1.321.226Zm10.184,5.9a10.233,10.233,0,0,1,1.885-6.5,6.109,6.109,0,0,1,5.06-2.393,6.1,6.1,0,0,1,4.882,2.079l.129-1.756h2.739V6.7h-2.981V-1.611a6.256,6.256,0,0,1-4.8,1.934,6.012,6.012,0,0,1-5.035-2.457,10.461,10.461,0,0,1-1.877-6.518Zm2.981.338a7.757,7.757,0,0,0,1.265,4.705A4.023,4.023,0,0,0,210.6-2.111a4.464,4.464,0,0,0,4.061-2.353V-13a4.478,4.478,0,0,0-4.028-2.3,4.054,4.054,0,0,0-3.432,1.716A8.445,8.445,0,0,0,205.928-8.524Zm27.264,6.8A6.332,6.332,0,0,1,228.083.322,5.42,5.42,0,0,1,223.838-1.3a7.009,7.009,0,0,1-1.474-4.794V-17.435h2.981V-6.171q0,3.964,3.223,3.964,3.416,0,4.544-2.546V-17.435h2.981V0h-2.836ZM247.854.322a7.618,7.618,0,0,1-5.769-2.328,8.642,8.642,0,0,1-2.224-6.228v-.548a10.462,10.462,0,0,1,.991-4.633,7.73,7.73,0,0,1,2.771-3.19,6.968,6.968,0,0,1,3.859-1.152,6.53,6.53,0,0,1,5.285,2.24A9.7,9.7,0,0,1,254.654-9.1v1.241H242.843A6.2,6.2,0,0,0,244.35-3.7a4.736,4.736,0,0,0,3.666,1.587,5.192,5.192,0,0,0,2.675-.645,6.721,6.721,0,0,0,1.917-1.708l1.821,1.418A7.321,7.321,0,0,1,247.854.322Zm-.371-15.63a3.976,3.976,0,0,0-3.029,1.313,6.383,6.383,0,0,0-1.515,3.682h8.733v-.226a5.678,5.678,0,0,0-1.225-3.521A3.744,3.744,0,0,0,247.484-15.308Zm19.046.548a8.933,8.933,0,0,0-1.466-.113,3.928,3.928,0,0,0-3.98,2.5V0H258.1V-17.435H261l.048,2.014a4.642,4.642,0,0,1,4.157-2.336,3.045,3.045,0,0,1,1.321.226Zm8.443,10.393,4.061-13.068h3.19L275.215,2.691q-1.627,4.351-5.172,4.351l-.564-.048-1.112-.209V4.367l.806.064a3.967,3.967,0,0,0,2.361-.612,4.431,4.431,0,0,0,1.394-2.24l.661-1.772-6.22-17.241h3.255Zm9.813,9.04-1.692-1.16a7.776,7.776,0,0,0,1.579-4.351V-3.529h2.917v2.336a7.34,7.34,0,0,1-.8,3.255A7.62,7.62,0,0,1,284.786,4.673Zm-495.209,34.7a2.195,2.195,0,0,0-.91-1.877,8.763,8.763,0,0,0-3.174-1.152,15.008,15.008,0,0,1-3.593-1.16,5.112,5.112,0,0,1-1.966-1.611,3.854,3.854,0,0,1-.636-2.224,4.523,4.523,0,0,1,1.813-3.625,7.079,7.079,0,0,1,4.633-1.482,7.285,7.285,0,0,1,4.81,1.531,4.862,4.862,0,0,1,1.845,3.916h-3a2.691,2.691,0,0,0-1.039-2.111,3.894,3.894,0,0,0-2.618-.886,4.075,4.075,0,0,0-2.546.709,2.232,2.232,0,0,0-.918,1.853,1.808,1.808,0,0,0,.854,1.627,10.507,10.507,0,0,0,3.086,1.047,16.078,16.078,0,0,1,3.617,1.192,5.277,5.277,0,0,1,2.054,1.668,4.1,4.1,0,0,1,.669,2.377,4.462,4.462,0,0,1-1.869,3.746,7.84,7.84,0,0,1-4.85,1.41,8.779,8.779,0,0,1-3.706-.741,6.028,6.028,0,0,1-2.522-2.071,4.991,4.991,0,0,1-.91-2.876h2.981a3.086,3.086,0,0,0,1.2,2.377,4.657,4.657,0,0,0,2.957.878,4.807,4.807,0,0,0,2.715-.685A2.1,2.1,0,0,0-210.423,39.375Zm6.075-4.254a10.3,10.3,0,0,1,1.007-4.608,7.513,7.513,0,0,1,2.8-3.158,7.632,7.632,0,0,1,4.1-1.112,7.352,7.352,0,0,1,5.76,2.465,9.485,9.485,0,0,1,2.2,6.558v.209a10.387,10.387,0,0,1-.975,4.568,7.4,7.4,0,0,1-2.788,3.15,7.72,7.72,0,0,1-4.165,1.128,7.334,7.334,0,0,1-5.744-2.465,9.437,9.437,0,0,1-2.2-6.526Zm3,.354a7.459,7.459,0,0,0,1.345,4.657,4.306,4.306,0,0,0,3.6,1.756,4.28,4.28,0,0,0,3.609-1.781,8.156,8.156,0,0,0,1.337-4.987,7.446,7.446,0,0,0-1.362-4.649,4.329,4.329,0,0,0-3.617-1.781A4.281,4.281,0,0,0-200,30.449,8.1,8.1,0,0,0-201.352,35.476Zm25.04-6.236a8.933,8.933,0,0,0-1.466-.113,3.928,3.928,0,0,0-3.98,2.5V44h-2.981V26.565h2.9l.048,2.014a4.642,4.642,0,0,1,4.157-2.336,3.045,3.045,0,0,1,1.321.226Zm11.167,0a8.933,8.933,0,0,0-1.466-.113,3.928,3.928,0,0,0-3.98,2.5V44h-2.981V26.565h2.9l.048,2.014a4.642,4.642,0,0,1,4.157-2.336,3.045,3.045,0,0,1,1.321.226Zm8.443,10.393,4.061-13.068h3.19l-7.009,20.125q-1.627,4.351-5.172,4.351l-.564-.048-1.112-.209V48.367l.806.064a3.967,3.967,0,0,0,2.361-.612,4.431,4.431,0,0,0,1.394-2.24l.661-1.772-6.22-17.241h3.255Zm33.516.258,3.352-13.326h2.981L-121.929,44h-2.417l-4.238-13.213L-132.709,44h-2.417l-5.06-17.435h2.965l3.432,13.052,4.061-13.052h2.4Zm16.6,4.431a7.618,7.618,0,0,1-5.769-2.328,8.642,8.642,0,0,1-2.224-6.228v-.548a10.462,10.462,0,0,1,.991-4.633,7.73,7.73,0,0,1,2.771-3.19,6.968,6.968,0,0,1,3.859-1.152,6.53,6.53,0,0,1,5.285,2.24A9.7,9.7,0,0,1-99.79,34.9v1.241H-111.6a6.2,6.2,0,0,0,1.507,4.165,4.736,4.736,0,0,0,3.666,1.587,5.192,5.192,0,0,0,2.675-.645,6.721,6.721,0,0,0,1.917-1.708l1.821,1.418A7.321,7.321,0,0,1-106.589,44.322Zm-.371-15.63a3.976,3.976,0,0,0-3.029,1.313,6.383,6.383,0,0,0-1.515,3.682h8.733v-.226A5.678,5.678,0,0,0-104,29.941,3.744,3.744,0,0,0-106.96,28.692Zm22.833-6.349v4.222h3.255v2.3h-3.255V39.682a2.415,2.415,0,0,0,.435,1.571,1.832,1.832,0,0,0,1.482.524,7.217,7.217,0,0,0,1.418-.193V44a8.642,8.642,0,0,1-2.288.322,3.712,3.712,0,0,1-3.013-1.208,5.192,5.192,0,0,1-1.015-3.432V28.87h-3.174v-2.3h3.174V22.344Zm9.716,6.333a6.338,6.338,0,0,1,5.156-2.433q5.527,0,5.575,6.236V44h-2.981V32.463a4.014,4.014,0,0,0-.862-2.788,3.455,3.455,0,0,0-2.635-.9,4.3,4.3,0,0,0-2.546.773,5.252,5.252,0,0,0-1.708,2.03V44h-2.981V19.25h2.981Zm14.405,6.445A10.3,10.3,0,0,1-59,30.513a7.513,7.513,0,0,1,2.8-3.158,7.632,7.632,0,0,1,4.1-1.112,7.352,7.352,0,0,1,5.76,2.465,9.485,9.485,0,0,1,2.2,6.558v.209a10.387,10.387,0,0,1-.975,4.568,7.4,7.4,0,0,1-2.788,3.15,7.72,7.72,0,0,1-4.165,1.128,7.334,7.334,0,0,1-5.744-2.465,9.437,9.437,0,0,1-2.2-6.526Zm3,.354a7.459,7.459,0,0,0,1.345,4.657,4.306,4.306,0,0,0,3.6,1.756,4.28,4.28,0,0,0,3.609-1.781,8.156,8.156,0,0,0,1.337-4.987,7.446,7.446,0,0,0-1.362-4.649,4.329,4.329,0,0,0-3.617-1.781,4.281,4.281,0,0,0-3.561,1.756A8.1,8.1,0,0,0-57.009,35.476Zm27.376,6.8a6.332,6.332,0,0,1-5.108,2.046A5.42,5.42,0,0,1-38.986,42.7a7.009,7.009,0,0,1-1.474-4.794V26.565h2.981V37.829q0,3.964,3.223,3.964,3.416,0,4.544-2.546V26.565h2.981V44h-2.836Zm6.719-7.138a10.247,10.247,0,0,1,1.885-6.486,6.029,6.029,0,0,1,5-2.409A6,6,0,0,1-11.054,28.5l.145-1.934h2.723V43.581a7.093,7.093,0,0,1-2.006,5.333,7.4,7.4,0,0,1-5.39,1.95,8.967,8.967,0,0,1-3.69-.806,6.352,6.352,0,0,1-2.755-2.208l1.547-1.789a5.829,5.829,0,0,0,4.689,2.369A4.567,4.567,0,0,0-12.4,47.207a4.681,4.681,0,0,0,1.217-3.448v-1.5a6.127,6.127,0,0,1-4.882,2.063,5.955,5.955,0,0,1-4.955-2.465A10.774,10.774,0,0,1-22.913,35.138Zm3,.338a7.817,7.817,0,0,0,1.208,4.633,3.927,3.927,0,0,0,3.384,1.684,4.367,4.367,0,0,0,4.141-2.562v-7.96a4.418,4.418,0,0,0-4.109-2.5,3.962,3.962,0,0,0-3.4,1.692A8.514,8.514,0,0,0-19.916,35.476Zm19.207-6.8a6.338,6.338,0,0,1,5.156-2.433q5.527,0,5.575,6.236V44H7.042V32.463a4.014,4.014,0,0,0-.862-2.788,3.455,3.455,0,0,0-2.635-.9A4.3,4.3,0,0,0,1,29.546a5.252,5.252,0,0,0-1.708,2.03V44H-3.69V19.25H-.709ZM18.53,22.344v4.222h3.255v2.3H18.53V39.682a2.415,2.415,0,0,0,.435,1.571,1.832,1.832,0,0,0,1.482.524,7.217,7.217,0,0,0,1.418-.193V44a8.642,8.642,0,0,1-2.288.322,3.712,3.712,0,0,1-3.013-1.208,5.192,5.192,0,0,1-1.015-3.432V28.87H12.375v-2.3h3.174V22.344ZM48.872,39.891l3.352-13.326H55.2L50.128,44H47.711L43.474,30.787,39.349,44H36.932l-5.06-17.435h2.965l3.432,13.052L42.33,26.565h2.4Zm16.6,4.431A7.618,7.618,0,0,1,59.7,41.994a8.642,8.642,0,0,1-2.224-6.228v-.548a10.462,10.462,0,0,1,.991-4.633,7.73,7.73,0,0,1,2.771-3.19A6.968,6.968,0,0,1,65.1,26.243a6.53,6.53,0,0,1,5.285,2.24A9.7,9.7,0,0,1,72.268,34.9v1.241H60.457A6.2,6.2,0,0,0,61.964,40.3a4.736,4.736,0,0,0,3.666,1.587,5.192,5.192,0,0,0,2.675-.645,6.721,6.721,0,0,0,1.917-1.708l1.821,1.418A7.321,7.321,0,0,1,65.468,44.322ZM65.1,28.692a3.976,3.976,0,0,0-3.029,1.313,6.383,6.383,0,0,0-1.515,3.682h8.733v-.226a5.678,5.678,0,0,0-1.225-3.521A3.744,3.744,0,0,0,65.1,28.692Zm21.769-.016a6.338,6.338,0,0,1,5.156-2.433q5.527,0,5.575,6.236V44H94.617V32.463a4.014,4.014,0,0,0-.862-2.788,3.455,3.455,0,0,0-2.635-.9,4.3,4.3,0,0,0-2.546.773,5.252,5.252,0,0,0-1.708,2.03V44H83.886V19.25h2.981ZM112.825,44a6.262,6.262,0,0,1-.419-1.837,6.651,6.651,0,0,1-4.963,2.159,6.154,6.154,0,0,1-4.23-1.458,4.718,4.718,0,0,1-1.652-3.7,4.929,4.929,0,0,1,2.071-4.23,9.762,9.762,0,0,1,5.825-1.507h2.9V32.06a3.348,3.348,0,0,0-.935-2.49,3.756,3.756,0,0,0-2.755-.927,4.347,4.347,0,0,0-2.675.806,2.374,2.374,0,0,0-1.08,1.95h-3a4.114,4.114,0,0,1,.927-2.522,6.324,6.324,0,0,1,2.514-1.926,8.456,8.456,0,0,1,3.489-.709,6.892,6.892,0,0,1,4.721,1.507,5.435,5.435,0,0,1,1.772,4.149v8.024a9.811,9.811,0,0,0,.612,3.819V44Zm-4.947-2.272A5.239,5.239,0,0,0,110.537,41a4.386,4.386,0,0,0,1.821-1.885V35.541h-2.336q-5.479,0-5.479,3.207a2.714,2.714,0,0,0,.935,2.191A3.592,3.592,0,0,0,107.878,41.728Zm11.408-6.59a10.213,10.213,0,0,1,1.9-6.453,6.469,6.469,0,0,1,9.829-.346V19.25H134V44h-2.739l-.145-1.869a6.071,6.071,0,0,1-4.979,2.191,5.955,5.955,0,0,1-4.939-2.481,10.329,10.329,0,0,1-1.909-6.478Zm2.981.338a7.733,7.733,0,0,0,1.225,4.641,3.959,3.959,0,0,0,3.384,1.676,4.349,4.349,0,0,0,4.141-2.546V31.238a4.382,4.382,0,0,0-4.109-2.465,3.978,3.978,0,0,0-3.416,1.692A8.514,8.514,0,0,0,122.268,35.476ZM150.031,44H147.05V26.565h2.981Zm-3.223-22.059a1.779,1.779,0,0,1,.443-1.225,1.664,1.664,0,0,1,1.313-.5,1.69,1.69,0,0,1,1.321.5,1.761,1.761,0,0,1,.451,1.225,1.7,1.7,0,0,1-.451,1.208,1.72,1.72,0,0,1-1.321.483,1.694,1.694,0,0,1-1.313-.483A1.72,1.72,0,0,1,146.808,21.941Zm12.037.4v4.222H162.1v2.3h-3.255V39.682a2.415,2.415,0,0,0,.435,1.571,1.832,1.832,0,0,0,1.482.524,7.217,7.217,0,0,0,1.418-.193V44a8.642,8.642,0,0,1-2.288.322,3.712,3.712,0,0,1-3.013-1.208,5.192,5.192,0,0,1-1.015-3.432V28.87h-3.174v-2.3h3.174V22.344ZM184.513,44a6.262,6.262,0,0,1-.419-1.837,6.651,6.651,0,0,1-4.963,2.159,6.154,6.154,0,0,1-4.23-1.458,4.718,4.718,0,0,1-1.652-3.7,4.929,4.929,0,0,1,2.071-4.23,9.762,9.762,0,0,1,5.825-1.507h2.9V32.06a3.348,3.348,0,0,0-.935-2.49,3.756,3.756,0,0,0-2.755-.927,4.347,4.347,0,0,0-2.675.806,2.374,2.374,0,0,0-1.08,1.95h-3a4.114,4.114,0,0,1,.927-2.522,6.324,6.324,0,0,1,2.514-1.926,8.456,8.456,0,0,1,3.489-.709,6.892,6.892,0,0,1,4.721,1.507,5.435,5.435,0,0,1,1.772,4.149v8.024a9.811,9.811,0,0,0,.612,3.819V44Zm-4.947-2.272A5.239,5.239,0,0,0,182.225,41a4.386,4.386,0,0,0,1.821-1.885V35.541h-2.336q-5.479,0-5.479,3.207a2.714,2.714,0,0,0,.935,2.191A3.592,3.592,0,0,0,179.566,41.728ZM194.938,44h-2.981V19.25h2.981Zm8.008,0h-2.981V19.25h2.981Zm4.834-1.563a1.867,1.867,0,0,1,.459-1.289,1.75,1.75,0,0,1,1.378-.516,1.8,1.8,0,0,1,1.394.516,1.829,1.829,0,0,1,.475,1.289,1.73,1.73,0,0,1-.475,1.241,1.835,1.835,0,0,1-1.394.5,1.657,1.657,0,0,1-1.837-1.74Zm8.685,0a1.867,1.867,0,0,1,.459-1.289,1.75,1.75,0,0,1,1.378-.516,1.8,1.8,0,0,1,1.394.516,1.829,1.829,0,0,1,.475,1.289,1.73,1.73,0,0,1-.475,1.241,1.835,1.835,0,0,1-1.394.5,1.657,1.657,0,0,1-1.837-1.74Z" transform="translate(6443 -541)" fill="#9ea1ac"/>
    <path id="Path_49" data-name="Path 49" d="M.035,54.73l.066.159,52.992.4,1.808-11L31.734,44.18l-.072-.156L42.144,35.2c2.241-1.9,4.227-3.677,5.959-5.366A51.834,51.834,0,0,0,52.536,25a25.677,25.677,0,0,0,2.938-4.521,15.8,15.8,0,0,0,1.47-4.428,11.163,11.163,0,0,0-.818-6.7A12.613,12.613,0,0,0,51.69,4.353a22.589,22.589,0,0,0-7.313-3.122,38.539,38.539,0,0,0-9.5-1.038,45.75,45.75,0,0,0-5.581.378,44.162,44.162,0,0,0-4.973.938,43.393,43.393,0,0,0-4.351,1.328c-1.345.489-2.583,1.015-3.709,1.55L13.951,15.02A46.1,46.1,0,0,1,18.465,13,45.025,45.025,0,0,1,23,11.514a38.786,38.786,0,0,1,4.381-.915,28.862,28.862,0,0,1,4.044-.322,18.006,18.006,0,0,1,4.21.432,9.01,9.01,0,0,1,3.1,1.31,4.871,4.871,0,0,1,1.776,2.15,5.208,5.208,0,0,1,.229,2.955A8.947,8.947,0,0,1,39.5,20.176a21.042,21.042,0,0,1-2.641,3.332c-1.124,1.193-2.492,2.485-4.118,3.928s-3.518,3.046-5.678,4.853Z" transform="translate(6158.427 -835.408)" fill="#9ca0af" opacity="0.519"/>
    <path id="Path_47" data-name="Path 47" d="M30.47,55.059,49.653,35.85c1.571-1.584,3.036-3.125,4.365-4.643a49.9,49.9,0,0,0,3.54-4.49,27.893,27.893,0,0,0,2.546-4.45,18.292,18.292,0,0,0,1.384-4.517,12.9,12.9,0,0,0-.876-7.541,13.726,13.726,0,0,0-4.765-5.526A23.653,23.653,0,0,0,48.1,1.3,39.267,39.267,0,0,0,38.214.184,44.229,44.229,0,0,0,27.591,1.53a35.717,35.717,0,0,0-9.013,3.608A24.763,24.763,0,0,0,11.9,10.631a16.71,16.71,0,0,0-3.561,7.026,11.743,11.743,0,0,0,.357,6.765,12.273,12.273,0,0,0,3.826,5.19,19.049,19.049,0,0,0,6.368,3.328,26.716,26.716,0,0,0,7.923,1.181c.577,0,1.151-.012,1.716-.039s1.12-.069,1.659-.125,1.062-.126,1.563-.21.979-.183,1.429-.3l.072.152L11.6,54.917Zm2.573-30.242a14.617,14.617,0,0,1-4.359-.609,8.752,8.752,0,0,1-3.109-1.653,5.7,5.7,0,0,1-1.709-2.43,5.444,5.444,0,0,1-.171-2.943A7.243,7.243,0,0,1,25.2,14.092a10.694,10.694,0,0,1,2.836-2.4,14.838,14.838,0,0,1,3.739-1.564,16.585,16.585,0,0,1,4.227-.57,13.258,13.258,0,0,1,4.238.626,8.788,8.788,0,0,1,3.066,1.709,6.2,6.2,0,0,1,1.741,2.473,5.468,5.468,0,0,1,.252,2.912,6.92,6.92,0,0,1-1.335,2.94,10.036,10.036,0,0,1-2.681,2.4,13.992,13.992,0,0,1-3.741,1.614A17.125,17.125,0,0,1,33.043,24.818Z" transform="translate(6615.001 -1037.105)" fill="#9ca0af" opacity="0.519"/>
    <path id="Path_43" data-name="Path 43" d="M1.368,50.2,36.516,46.03l-.8,12.358,16.256-1.874.585-12.386L63.8,42.795l.329-9.453L53,34.689l1.572-33.3L40.919,3.165,1.285,50.051ZM23.966,38.2l-.087-.142L31.54,28.9c.589-.709,1.191-1.437,1.794-2.171s1.207-1.474,1.8-2.207,1.176-1.458,1.736-2.164,1.1-1.391,1.6-2.044l.192.05c-.065.635-.132,1.294-.2,1.968s-.132,1.365-.2,2.06-.124,1.4-.179,2.1-.107,1.393-.151,2.073l-.517,8.017Z" transform="translate(6450.469 -778.531)" fill="#9ca0af" opacity="0.519"/>
    <path id="Path_44" data-name="Path 44" d="M14.189,52.59l15.475,4.564L56.033,7.841,23.939,6.935l-5.3,9.188,15.6.456Zm31.554,9.14.025.173L97.288,77.1,101.8,66.865l-22.54-6.576-.031-.172,12.419-5.683c2.659-1.229,5.037-2.407,7.147-3.572a50.156,50.156,0,0,0,5.526-3.476,24.864,24.864,0,0,0,3.992-3.591,15.459,15.459,0,0,0,2.539-3.91,11.3,11.3,0,0,0,.878-6.76A13.256,13.256,0,0,0,108.665,27a23.662,23.662,0,0,0-6.34-5.086,39.642,39.642,0,0,0-8.994-3.665A46.375,46.375,0,0,0,87.8,17.062a44.31,44.31,0,0,0-5.077-.474,43.144,43.144,0,0,0-4.569.081c-1.432.1-2.769.269-4,.476l-4.911,9.726a45.4,45.4,0,0,1,4.9-.714,44.7,44.7,0,0,1,4.789-.178,38.857,38.857,0,0,1,4.5.331,29.228,29.228,0,0,1,4.019.815,18.511,18.511,0,0,1,3.992,1.6,9.436,9.436,0,0,1,2.691,2.143,5.113,5.113,0,0,1,1.191,2.593,5.253,5.253,0,0,1-.517,2.947,8.725,8.725,0,0,1-1.97,2.632,20.359,20.359,0,0,1-3.406,2.513c-1.393.851-3.05,1.728-4.994,2.682s-4.189,1.99-6.745,3.149Z" transform="translate(6494.379 -853.182)" fill="#9ca0af" opacity="0.519"/>
    <path id="Path_48" data-name="Path 48" d="M4.966,39.684l34.586,4.39L35.436,55.726l15.979,2.081,3.919-11.73,11.067,1.4L69.281,38.5,58.32,37.136,68.861,5.585,55.38,4.026,4.926,39.526Zm24.764-6.105-.044-.157,9.78-6.959c.753-.539,1.524-1.093,2.3-1.653s1.549-1.125,2.313-1.686,1.515-1.117,2.24-1.66,1.424-1.071,2.082-1.577l.169.093c-.234.593-.477,1.209-.723,1.84s-.5,1.277-.745,1.928-.5,1.311-.74,1.966-.48,1.31-.706,1.952l-2.668,7.562ZM71.4,57.762a27.83,27.83,0,0,0,3.592,1.862,47.975,47.975,0,0,0,4.59,1.72c1.669.535,3.458,1.023,5.323,1.442s3.81.769,5.782,1.026a54.768,54.768,0,0,0,12.237.276,37.718,37.718,0,0,0,10.391-2.4,22.573,22.573,0,0,0,7.646-4.851,15.107,15.107,0,0,0,4.07-7.035,11.091,11.091,0,0,0-.725-7.9,15.65,15.65,0,0,0-5.5-5.839A34.921,34.921,0,0,0,110.26,32.1a60.141,60.141,0,0,0-9.921-2.252L104.381,19.7l23.611,2.793,3.5-9.666L92.713,8.343,80.843,37.113c.674.007,1.377.028,2.1.059s1.454.075,2.193.128,1.482.117,2.216.188,1.46.152,2.164.239c2.064.255,4.391.624,6.695,1.13a40.75,40.75,0,0,1,6.569,1.964,13.242,13.242,0,0,1,4.72,2.957,4.182,4.182,0,0,1,1.111,4.116,5.376,5.376,0,0,1-1.785,2.713,9.7,9.7,0,0,1-3.43,1.767,19.6,19.6,0,0,1-4.761.774,32.979,32.979,0,0,1-5.765-.258,41.926,41.926,0,0,1-4.393-.805c-1.461-.347-2.916-.771-4.351-1.264s-2.847-1.052-4.228-1.672-2.725-1.3-4.025-2.028Z" transform="translate(6207.568 -797.154)" fill="#9ca0af" opacity="0.519"/>
    <path id="Path_51" data-name="Path 51" d="M34.5,22a12.978,12.978,0,0,1-3.612-.479,8.361,8.361,0,0,1-2.752-1.332,5,5,0,0,1-1.62-2.013,4.217,4.217,0,0,1-.226-2.522,5.667,5.667,0,0,1,1.23-2.47,8.9,8.9,0,0,1,2.389-1.971A12.91,12.91,0,0,1,33.152,9.9a15.4,15.4,0,0,1,3.79-.487,13.305,13.305,0,0,1,3.616.453,8.434,8.434,0,0,1,2.752,1.288,5.007,5.007,0,0,1,1.643,1.963,4.148,4.148,0,0,1,.278,2.477,5.661,5.661,0,0,1-1.214,2.538,8.936,8.936,0,0,1-2.421,2.03,12.979,12.979,0,0,1-3.288,1.346A15.136,15.136,0,0,1,34.5,22ZM29.917,45.65a15.436,15.436,0,0,1-4.339-.6,9.449,9.449,0,0,1-3.214-1.618A5.8,5.8,0,0,1,20.529,41a5.318,5.318,0,0,1-.215-3.029,7.188,7.188,0,0,1,1.494-3.059A10.718,10.718,0,0,1,24.656,32.5a14.916,14.916,0,0,1,3.817-1.587,17.163,17.163,0,0,1,4.412-.57,14.791,14.791,0,0,1,4.2.578,9.759,9.759,0,0,1,3.222,1.6,6.142,6.142,0,0,1,1.931,2.436,5.354,5.354,0,0,1,.314,3.081,6.969,6.969,0,0,1-1.4,3.041,10.179,10.179,0,0,1-2.8,2.42,14.574,14.574,0,0,1-3.859,1.591A17.924,17.924,0,0,1,29.917,45.65ZM48.945,25.472a21.826,21.826,0,0,0,4.586-1.822,16.661,16.661,0,0,0,3.55-2.547A12.926,12.926,0,0,0,59.507,18a10.816,10.816,0,0,0,1.223-3.481,8.995,8.995,0,0,0-.942-5.83A12.591,12.591,0,0,0,55.35,4.139,23.837,23.837,0,0,0,48.114,1.2,39.038,39.038,0,0,0,38.731.191a44.312,44.312,0,0,0-9.75,1.137A34.976,34.976,0,0,0,20.7,4.35,22.127,22.127,0,0,0,14.6,8.912a12.735,12.735,0,0,0-3.141,5.774,9.09,9.09,0,0,0-.132,3.433,7.79,7.79,0,0,0,1.188,3.055,9.246,9.246,0,0,0,2.5,2.512,13.958,13.958,0,0,0,3.807,1.8l-.031.148a28.262,28.262,0,0,0-5.643,2.157,21.567,21.567,0,0,0-4.445,3.017,16.716,16.716,0,0,0-3.149,3.713,13.9,13.9,0,0,0-1.744,4.243,10.977,10.977,0,0,0,.532,6.842,13.034,13.034,0,0,0,4.579,5.42,24.8,24.8,0,0,0,8.062,3.592,44.3,44.3,0,0,0,10.924,1.35A50.691,50.691,0,0,0,39.4,54.783a37.321,37.321,0,0,0,9.584-3.5A23.027,23.027,0,0,0,55.8,45.86a14.478,14.478,0,0,0,3.255-6.925,11.069,11.069,0,0,0-.112-4.31,10.1,10.1,0,0,0-1.765-3.771,12.632,12.632,0,0,0-3.36-3.058,19.24,19.24,0,0,0-4.9-2.176Z" transform="translate(6232.203 -961.894)" fill="#9ca0af" opacity="0.519"/>
    <path id="Path_52" data-name="Path 52" d="M27.036,56.839a37.535,37.535,0,0,0,6.177.19,34.869,34.869,0,0,0,5.969-.828A31.557,31.557,0,0,0,44.76,54.37a28.294,28.294,0,0,0,5-2.811,27.11,27.11,0,0,0,4.1-3.6,29.009,29.009,0,0,0,3.4-4.469,37.22,37.22,0,0,0,2.761-5.428A54.038,54.038,0,0,0,62.21,31.6a49.815,49.815,0,0,0,1.352-6.451,28.565,28.565,0,0,0,.251-5.452,18.527,18.527,0,0,0-.824-4.6,15.4,15.4,0,0,0-1.879-3.9,16.156,16.156,0,0,0-3.053-3.336,20.242,20.242,0,0,0-4.024-2.58,26.574,26.574,0,0,0-4.856-1.8A34.511,34.511,0,0,0,43.623,2.5a37.378,37.378,0,0,0-5.761-.12,35.2,35.2,0,0,0-5.6.767A31.778,31.778,0,0,0,27,4.79a27.981,27.981,0,0,0-4.781,2.53,26.989,26.989,0,0,0-4,3.266A28.9,28.9,0,0,0,14.787,14.7a37.327,37.327,0,0,0-2.933,5.1,55.175,55.175,0,0,0-2.5,6.24,52.192,52.192,0,0,0-1.755,6.416,30.382,30.382,0,0,0-.628,5.58,19.56,19.56,0,0,0,.511,4.833A15.276,15.276,0,0,0,12.1,50.723a20.023,20.023,0,0,0,4.085,2.895,26.275,26.275,0,0,0,5.039,2.06A33.734,33.734,0,0,0,27.036,56.839Zm3.323-10.887a10.628,10.628,0,0,1-2.222-.479,8.661,8.661,0,0,1-1.811-.843,7.548,7.548,0,0,1-1.407-1.118,6.9,6.9,0,0,1-1.012-1.3,7.243,7.243,0,0,1-.836-2.432,13.057,13.057,0,0,1-.1-3.149,27.849,27.849,0,0,1,.637-3.972c.333-1.47.785-3.094,1.357-4.892.535-1.682,1.082-3.221,1.651-4.619a33.739,33.739,0,0,1,1.785-3.764A19.027,19.027,0,0,1,30.4,16.449a12.009,12.009,0,0,1,2.263-2.115,11.1,11.1,0,0,1,1.678-.974,11.544,11.544,0,0,1,1.91-.7,11.89,11.89,0,0,1,2.107-.366,12.434,12.434,0,0,1,2.271.022,11.447,11.447,0,0,1,2.192.427,8.413,8.413,0,0,1,1.767.757,6.876,6.876,0,0,1,1.368,1.031,6.415,6.415,0,0,1,1,1.248,7.081,7.081,0,0,1,.918,2.477,12.937,12.937,0,0,1,.141,3.145,27.634,27.634,0,0,1-.556,3.85c-.293,1.408-.689,2.939-1.174,4.6-.546,1.867-1.1,3.529-1.664,5.007a32.68,32.68,0,0,1-1.776,3.914,18.013,18.013,0,0,1-1.965,2.941,12.179,12.179,0,0,1-2.233,2.1,12.531,12.531,0,0,1-1.714,1.011,11.991,11.991,0,0,1-1.963.752,11.75,11.75,0,0,1-2.194.4A12.218,12.218,0,0,1,30.359,45.952Z" transform="translate(6140.935 -991.101)" fill="#9ca0af" opacity="0.519"/>
    <path id="Path_42" data-name="Path 42" d="M14.315,51.11l15.073,5.022,29.5-47.444L27.041,6.665l-5.883,8.829,15.481,1ZM45.058,61.186l.013.171L95.243,78.071l5.173-9.872L78.46,60.956l-.02-.17,12.722-5.134c2.724-1.111,5.167-2.183,7.343-3.25a52.223,52.223,0,0,0,5.726-3.214,25.862,25.862,0,0,0,4.209-3.381,15.88,15.88,0,0,0,2.787-3.745,11.135,11.135,0,0,0,1.328-6.6,12.484,12.484,0,0,0-2.637-6.114,22.387,22.387,0,0,0-5.96-5.214,38.354,38.354,0,0,0-8.694-3.914,45.677,45.677,0,0,0-5.416-1.362,44.185,44.185,0,0,0-5.015-.644,43.5,43.5,0,0,0-4.547-.082c-1.43.049-2.77.166-4.007.326l-5.534,9.37a46.293,46.293,0,0,1,4.92-.528,45.146,45.146,0,0,1,4.772-.006,38.82,38.82,0,0,1,4.446.483,28.82,28.82,0,0,1,3.94.941,17.921,17.921,0,0,1,3.861,1.707,8.93,8.93,0,0,1,2.531,2.2,4.823,4.823,0,0,1,1.01,2.586,5.2,5.2,0,0,1-.712,2.872,9,9,0,0,1-2.135,2.513,21.2,21.2,0,0,1-3.554,2.345c-1.441.785-3.147,1.588-5.143,2.455s-4.3,1.8-6.914,2.85Zm61.449,16.843a25.95,25.95,0,0,0,3.4,3.074,43.25,43.25,0,0,0,4.461,2.979,56.485,56.485,0,0,0,5.242,2.705,59.787,59.787,0,0,0,5.735,2.25A48.311,48.311,0,0,0,136.3,91.357a35.918,35.918,0,0,0,9.968-.421,21.619,21.619,0,0,0,7.932-3.1,13.346,13.346,0,0,0,4.9-5.677,11.189,11.189,0,0,0,.98-4.15,10.639,10.639,0,0,0-.71-4.194,13.335,13.335,0,0,0-2.483-4.025,20.3,20.3,0,0,0-4.342-3.651L152.6,66a22.309,22.309,0,0,0,5.178-.318,17.392,17.392,0,0,0,4.441-1.428,13.147,13.147,0,0,0,3.471-2.4,10.53,10.53,0,0,0,2.279-3.246,9.209,9.209,0,0,0,.543-5.992,13.982,13.982,0,0,0-3.227-5.877,26.824,26.824,0,0,0-6.469-5.227,44,44,0,0,0-9.231-4.066c-1.423-.451-2.861-.842-4.293-1.168s-2.858-.588-4.26-.781-2.779-.318-4.111-.371a32.826,32.826,0,0,0-3.848.063l-4.664,9.254c1.193-.058,2.466-.07,3.78-.033s2.668.125,4.022.268,2.71.34,4.026.6a33.866,33.866,0,0,1,3.791.959,20.851,20.851,0,0,1,4.066,1.749,10.533,10.533,0,0,1,2.744,2.183,5.224,5.224,0,0,1,1.254,2.507,4.519,4.519,0,0,1-.411,2.72,5.5,5.5,0,0,1-1.794,2.161,7.377,7.377,0,0,1-2.949,1.206,13.72,13.72,0,0,1-4.073.1,26.227,26.227,0,0,1-5.156-1.163l-6.592-2.133-4.056,8.218,7.045,2.3a31.164,31.164,0,0,1,5.282,2.2,12.466,12.466,0,0,1,3.273,2.446,5.228,5.228,0,0,1,1.372,2.625,4.587,4.587,0,0,1-.427,2.74,5.726,5.726,0,0,1-2.03,2.362,8.122,8.122,0,0,1-3.2,1.208,14.676,14.676,0,0,1-4.131.05,24.559,24.559,0,0,1-4.814-1.1,34.267,34.267,0,0,1-4.731-1.978,41.817,41.817,0,0,1-4.486-2.647,51.948,51.948,0,0,1-4.227-3.188c-1.363-1.137-2.682-2.344-3.957-3.6Z" transform="translate(6304.709 -865.182)" fill="#9ca0af" opacity="0.519"/>
    <path id="Path_45" data-name="Path 45" d="M25.983,5.15,10.436,25.39c-1.586,2.042-2.955,3.92-4.12,5.685A44.446,44.446,0,0,0,3.41,36.088a26.132,26.132,0,0,0-1.769,4.64A21.174,21.174,0,0,0,.926,45.3,14.859,14.859,0,0,0,2.612,53.28a13.742,13.742,0,0,0,5.442,5.344A22.332,22.332,0,0,0,16.5,61.168a38.491,38.491,0,0,0,10.628-.409A44.47,44.47,0,0,0,38.1,57.443a35.708,35.708,0,0,0,8.731-5.531,24.536,24.536,0,0,0,5.708-7.071,16.66,16.66,0,0,0,1.976-7.924A13.013,13.013,0,0,0,52.653,30.2a13.347,13.347,0,0,0-4.812-4.584,19.029,19.029,0,0,0-6.957-2.267,27.14,27.14,0,0,0-8.349.245q-1.137.2-2.18.469t-1.979.58c-.624.209-1.212.433-1.761.667s-1.058.479-1.525.73l-.1-.058L43.7,1.9ZM16.938,43.444a7.468,7.468,0,0,1,.941-3.355,10.7,10.7,0,0,1,2.384-2.914,14.738,14.738,0,0,1,3.48-2.239,17.079,17.079,0,0,1,4.241-1.329,14.116,14.116,0,0,1,4.341-.132,8.973,8.973,0,0,1,3.4,1.135,6.179,6.179,0,0,1,2.219,2.2,6.024,6.024,0,0,1,.786,3.077,7.593,7.593,0,0,1-.894,3.479,10.732,10.732,0,0,1-2.405,3.023A14.723,14.723,0,0,1,31.892,48.7a16.769,16.769,0,0,1-4.281,1.342,13.32,13.32,0,0,1-4.486.059,8.638,8.638,0,0,1-3.39-1.3,6.361,6.361,0,0,1-2.117-2.331A6.114,6.114,0,0,1,16.938,43.444Z" transform="translate(6626.804 -904.151)" fill="#9ca0af" opacity="0.519"/>
    <path id="Path_46" data-name="Path 46" d="M1.125,49.7a26.083,26.083,0,0,0,3.5,1.773,45.438,45.438,0,0,0,4.489,1.615c1.634.5,3.388.948,5.218,1.327s3.741.691,5.681.909a53.983,53.983,0,0,0,12.07.055,38.331,38.331,0,0,0,10.313-2.552,23.6,23.6,0,0,0,7.664-4.921,15.739,15.739,0,0,0,4.19-7.012,10.822,10.822,0,0,0-.521-7.78,14.5,14.5,0,0,0-5.288-5.664,32.835,32.835,0,0,0-8.334-3.761,57.8,57.8,0,0,0-9.738-2.046l4.238-10.085L57.847,13.9l3.7-9.6L23.364.552,10.945,29.161c.665,0,1.358,0,2.067.021s1.434.048,2.162.088,1.46.089,2.183.146,1.437.124,2.13.2c2.031.215,4.319.537,6.581,1A38.867,38.867,0,0,1,32.5,32.431a12.345,12.345,0,0,1,4.587,2.834,4.009,4.009,0,0,1,1,4.041,5.616,5.616,0,0,1-1.828,2.708,10.083,10.083,0,0,1-3.429,1.8,19.769,19.769,0,0,1-4.718.848,32.414,32.414,0,0,1-5.683-.152,40.5,40.5,0,0,1-4.316-.716c-1.434-.317-2.859-.709-4.264-1.17s-2.784-.987-4.133-1.574-2.658-1.232-3.924-1.929Z" transform="translate(6545.894 -948.413)" fill="#9ca0af" opacity="0.519"/>
  </g>
</svg>
