<svg xmlns="http://www.w3.org/2000/svg" xmlns:xlink="http://www.w3.org/1999/xlink" width="377.093" height="96.734" viewBox="0 0 377.093 96.734">
  <defs>
    <clipPath id="clip-path">
      <rect id="Rectangle_28" data-name="Rectangle 28" width="97.586" height="51.584" fill="#8448f5"/>
    </clipPath>
  </defs>
  <g id="Group_39" data-name="Group 39" transform="translate(-3089.76 273.345)">
    <path id="Path_34" data-name="Path 34" d="M.76-6.878A6.913,6.913,0,0,0,7.752.209a6.913,6.913,0,0,0,6.992-7.087,6.913,6.913,0,0,0-6.992-7.087A6.913,6.913,0,0,0,.76-6.878Zm1.805,0a5.2,5.2,0,0,1,5.187-5.415,5.2,5.2,0,0,1,5.187,5.415A5.2,5.2,0,0,1,7.752-1.463,5.2,5.2,0,0,1,2.565-6.878ZM17,0h1.71V-6.4a3.936,3.936,0,0,1,2.926-1.558,1.938,1.938,0,0,1,1.5.608,2.9,2.9,0,0,1,.437,1.9V0h1.71V-5.776a3.786,3.786,0,0,0-.779-2.755,3.234,3.234,0,0,0-2.489-1.026,4.635,4.635,0,0,0-3.268,1.406l-.038-.019V-9.348H17ZM28.253,0h1.71V-14.516h-1.71Zm4.37-12.559a1.192,1.192,0,0,0,1.2,1.2,1.192,1.192,0,0,0,1.2-1.2,1.192,1.192,0,0,0-1.2-1.2A1.192,1.192,0,0,0,32.623-12.559ZM32.965,0h1.71V-9.348h-1.71Zm4.712,0h1.71V-6.4a3.936,3.936,0,0,1,2.926-1.558,1.938,1.938,0,0,1,1.5.608,2.9,2.9,0,0,1,.437,1.9V0h1.71V-5.776a3.786,3.786,0,0,0-.779-2.755,3.234,3.234,0,0,0-2.489-1.026,4.635,4.635,0,0,0-3.268,1.406l-.038-.019V-9.348h-1.71ZM57.133-4.18a5.863,5.863,0,0,0,.057-.855,4.183,4.183,0,0,0-4.256-4.522,4.659,4.659,0,0,0-4.655,4.883A4.765,4.765,0,0,0,53.333.209a6.618,6.618,0,0,0,3.344-.874V-2.489a5.328,5.328,0,0,1-3.23,1.159,3.2,3.2,0,0,1-3.458-2.85ZM52.9-8.018a2.531,2.531,0,0,1,2.641,2.489h-5.51A2.855,2.855,0,0,1,52.9-8.018ZM64.258,0h8.113V-1.634H66.063V-6.365H71.44V-7.942H66.063v-4.18H72.2v-1.634H64.258ZM74.689,0H76.4V-6.4a3.936,3.936,0,0,1,2.926-1.558,1.938,1.938,0,0,1,1.5.608,2.9,2.9,0,0,1,.437,1.9V0h1.71V-5.776a3.786,3.786,0,0,0-.779-2.755,3.234,3.234,0,0,0-2.489-1.026,4.635,4.635,0,0,0-3.268,1.406L76.4-8.17V-9.348h-1.71ZM93.157-2.261a4.352,4.352,0,0,1-2.7.912A3.22,3.22,0,0,1,87.02-4.617,3.274,3.274,0,0,1,90.4-8a4.928,4.928,0,0,1,2.6.8V-8.968a5.635,5.635,0,0,0-2.527-.589,4.943,4.943,0,0,0-5.187,4.94A4.79,4.79,0,0,0,90.364.209a6.04,6.04,0,0,0,2.793-.646ZM97.774,4.18,104.1-9.348H102.3l-1.634,3.534c-.437.95-.855,1.881-1.273,2.812h-.038c-.38-.855-.836-1.862-1.273-2.812L96.444-9.348h-1.9l3.895,8.341L95.912,4.18Zm14.744-6.441a4.352,4.352,0,0,1-2.7.912,3.22,3.22,0,0,1-3.439-3.268A3.274,3.274,0,0,1,109.763-8a4.928,4.928,0,0,1,2.6.8V-8.968a5.635,5.635,0,0,0-2.527-.589,4.943,4.943,0,0,0-5.187,4.94A4.79,4.79,0,0,0,109.725.209a6.04,6.04,0,0,0,2.793-.646ZM114.988,0h1.71V-14.516h-1.71Zm4.066-4.674a4.812,4.812,0,0,0,4.94,4.883,4.812,4.812,0,0,0,4.94-4.883,4.812,4.812,0,0,0-4.94-4.883A4.812,4.812,0,0,0,119.054-4.674Zm1.71,0A3.2,3.2,0,0,1,123.994-8a3.2,3.2,0,0,1,3.23,3.325,3.2,3.2,0,0,1-3.23,3.325A3.2,3.2,0,0,1,120.764-4.674ZM133-.285l.038-.019a5.273,5.273,0,0,0,2.3.513,4.729,4.729,0,0,0,4.883-4.921A4.557,4.557,0,0,0,135.7-9.557a4.612,4.612,0,0,0-2.66.836L133-8.74v-.608h-1.71V4.18H133Zm0-1.653V-7.163a3.9,3.9,0,0,1,2.413-.855,3.171,3.171,0,0,1,3.078,3.439,3.06,3.06,0,0,1-3.116,3.287A5.144,5.144,0,0,1,133-1.938ZM145.179.209a4.436,4.436,0,0,0,2.869-1.026h.038a1.987,1.987,0,0,0,1.8.988A2.437,2.437,0,0,0,150.8,0V-1.425a1.308,1.308,0,0,1-.551.133c-.513,0-.722-.418-.722-.988V-6.251A3.15,3.15,0,0,0,148.6-8.7a4.064,4.064,0,0,0-2.793-.855,5.884,5.884,0,0,0-3.116.8v1.672a4.874,4.874,0,0,1,2.869-.931,2.536,2.536,0,0,1,1.729.513,2.02,2.02,0,0,1,.532,1.539v.779a8.192,8.192,0,0,0-1.995-.247,4.88,4.88,0,0,0-2.622.627,2.6,2.6,0,0,0-1.235,2.28,2.49,2.49,0,0,0,.988,2.071A3.731,3.731,0,0,0,145.179.209Zm.3-1.52c-1.007,0-1.786-.456-1.786-1.368,0-1.1,1.14-1.444,2.3-1.444a7.049,7.049,0,0,1,1.824.247v1.748A3.9,3.9,0,0,1,145.483-1.311ZM160.911-4.18a5.864,5.864,0,0,0,.057-.855,4.183,4.183,0,0,0-4.256-4.522,4.659,4.659,0,0,0-4.655,4.883A4.765,4.765,0,0,0,157.111.209a6.618,6.618,0,0,0,3.344-.874V-2.489a5.328,5.328,0,0,1-3.23,1.159,3.2,3.2,0,0,1-3.458-2.85Zm-4.237-3.838a2.531,2.531,0,0,1,2.641,2.489H153.8A2.855,2.855,0,0,1,156.674-8.018Zm6.118,3.5A4.492,4.492,0,0,0,167.371.209a4.524,4.524,0,0,0,2.622-.8l.038.019V0h1.71V-14.516h-1.71v5.434l-.038.019a5.36,5.36,0,0,0-2.242-.494A4.82,4.82,0,0,0,162.792-4.522Zm1.729-.095a3.18,3.18,0,0,1,3.211-3.42,5.208,5.208,0,0,1,2.3.589v5.339a4.323,4.323,0,0,1-2.432.8A3.045,3.045,0,0,1,164.521-4.617Zm9.88-7.942a1.192,1.192,0,0,0,1.2,1.2,1.192,1.192,0,0,0,1.2-1.2,1.192,1.192,0,0,0-1.2-1.2A1.192,1.192,0,0,0,174.4-12.559ZM174.743,0h1.71V-9.348h-1.71Zm7.3.209a4.436,4.436,0,0,0,2.869-1.026h.038a1.987,1.987,0,0,0,1.8.988A2.437,2.437,0,0,0,187.663,0V-1.425a1.308,1.308,0,0,1-.551.133c-.513,0-.722-.418-.722-.988V-6.251a3.15,3.15,0,0,0-.931-2.451,4.064,4.064,0,0,0-2.793-.855,5.884,5.884,0,0,0-3.116.8v1.672a4.874,4.874,0,0,1,2.869-.931,2.537,2.537,0,0,1,1.729.513,2.02,2.02,0,0,1,.532,1.539v.779a8.192,8.192,0,0,0-1.995-.247,4.88,4.88,0,0,0-2.622.627,2.6,2.6,0,0,0-1.235,2.28,2.49,2.49,0,0,0,.988,2.071A3.731,3.731,0,0,0,182.039.209Zm.3-1.52c-1.007,0-1.786-.456-1.786-1.368,0-1.1,1.14-1.444,2.3-1.444a7.049,7.049,0,0,1,1.824.247v1.748A3.9,3.9,0,0,1,182.343-1.311Zm11.172-3.363a4.812,4.812,0,0,0,4.94,4.883,4.812,4.812,0,0,0,4.94-4.883,4.812,4.812,0,0,0-4.94-4.883A4.812,4.812,0,0,0,193.515-4.674Zm1.71,0A3.2,3.2,0,0,1,198.455-8a3.2,3.2,0,0,1,3.23,3.325,3.2,3.2,0,0,1-3.23,3.325A3.2,3.2,0,0,1,195.225-4.674Zm11,4.674h1.71V-7.809h2.394V-9.348h-2.394v-2.033c0-.988.209-1.786,1.387-1.786a6.379,6.379,0,0,1,1.33.171v-1.539a5.459,5.459,0,0,0-1.406-.19,3.068,3.068,0,0,0-2.185.779,3.709,3.709,0,0,0-.836,2.812v1.786h-1.482v1.539h1.482Zm10.7,0h1.8V-13.756h-1.8Zm4.845,0h1.71V-6.4A3.936,3.936,0,0,1,226.4-7.961a1.938,1.938,0,0,1,1.5.608,2.9,2.9,0,0,1,.437,1.9V0h1.71V-5.776a3.786,3.786,0,0,0-.779-2.755,3.234,3.234,0,0,0-2.489-1.026,4.635,4.635,0,0,0-3.268,1.406l-.038-.019V-9.348h-1.71Zm12.673-.665a2.715,2.715,0,0,0,2.128.874,4.159,4.159,0,0,0,1.691-.342V-1.748a2.83,2.83,0,0,1-1.406.4c-1.235,0-1.406-1.064-1.406-2.223V-7.809h2.812V-9.348h-2.812v-2.831l-1.71.285v2.546h-1.729v1.539h1.729v4.56A3.688,3.688,0,0,0,234.441-.665ZM248.387-4.18a5.864,5.864,0,0,0,.057-.855,4.183,4.183,0,0,0-4.256-4.522,4.659,4.659,0,0,0-4.655,4.883A4.765,4.765,0,0,0,244.587.209a6.618,6.618,0,0,0,3.344-.874V-2.489A5.328,5.328,0,0,1,244.7-1.33a3.2,3.2,0,0,1-3.458-2.85ZM244.15-8.018a2.531,2.531,0,0,1,2.641,2.489h-5.51A2.855,2.855,0,0,1,244.15-8.018Zm7.353,11.7a6.622,6.622,0,0,0,2.964.7c2.869,0,4.693-1.691,4.693-4.427V-9.31l-1.653.285a5.351,5.351,0,0,0-2.375-.532,4.692,4.692,0,0,0-4.845,4.9A4.51,4.51,0,0,0,254.866.019,4.625,4.625,0,0,0,257.412-.7l.038.019V0a2.716,2.716,0,0,1-2.983,2.831,5.453,5.453,0,0,1-2.964-.969Zm.513-8.455a3.055,3.055,0,0,1,3.078-3.268,4.821,4.821,0,0,1,2.356.646v5.149a3.95,3.95,0,0,1-2.337.76A3.077,3.077,0,0,1,252.016-4.769Zm18.373.589a5.859,5.859,0,0,0,.057-.855,4.183,4.183,0,0,0-4.256-4.522,4.659,4.659,0,0,0-4.655,4.883A4.765,4.765,0,0,0,266.589.209a6.618,6.618,0,0,0,3.344-.874V-2.489A5.328,5.328,0,0,1,266.7-1.33a3.2,3.2,0,0,1-3.458-2.85Zm-4.237-3.838a2.531,2.531,0,0,1,2.641,2.489h-5.51A2.855,2.855,0,0,1,266.152-8.018ZM272.878,0h1.71V-6.08a3.058,3.058,0,0,1,2.755-1.653,2.75,2.75,0,0,1,.665.076V-9.348a2.317,2.317,0,0,0-.608-.076,3.407,3.407,0,0,0-2.774,1.463l-.038-.019V-9.348h-1.71Zm11.229-.874A8.481,8.481,0,0,0,288.249.209c2.755,0,4.6-1.482,4.6-3.99,0-2.622-1.976-3.42-3.971-3.99-1.672-.475-3.268-.76-3.268-2.47,0-1.406,1.083-2.071,2.622-2.071a7.349,7.349,0,0,1,3.99,1.273v-1.9a7.768,7.768,0,0,0-3.952-1.026c-2.679,0-4.446,1.406-4.446,3.838,0,2.508,1.881,3.306,3.819,3.857,1.8.513,3.42.817,3.42,2.584,0,1.5-1.159,2.242-2.793,2.242a7.2,7.2,0,0,1-4.161-1.406ZM303.316-4.18a5.859,5.859,0,0,0,.057-.855,4.183,4.183,0,0,0-4.256-4.522,4.659,4.659,0,0,0-4.655,4.883A4.765,4.765,0,0,0,299.516.209a6.618,6.618,0,0,0,3.344-.874V-2.489a5.328,5.328,0,0,1-3.23,1.159,3.2,3.2,0,0,1-3.458-2.85Zm-4.237-3.838a2.531,2.531,0,0,1,2.641,2.489h-5.51A2.855,2.855,0,0,1,299.079-8.018ZM305.2-4.6A4.564,4.564,0,0,0,309.814.209,4.839,4.839,0,0,0,312.4-.532l.038.019V4.18h1.71V-9.31l-1.672.285a5.4,5.4,0,0,0-2.337-.532A4.775,4.775,0,0,0,305.2-4.6Zm1.729-.095a3.115,3.115,0,0,1,3.154-3.344,5.034,5.034,0,0,1,2.356.646v5.3a4.083,4.083,0,0,1-2.413.8A3.162,3.162,0,0,1,306.926-4.693ZM317.87-.836A3.342,3.342,0,0,0,320.416.209a4.581,4.581,0,0,0,3.23-1.406l.038.019V0h1.71V-9.348h-1.71v6.384a4,4,0,0,1-2.926,1.6,1.824,1.824,0,0,1-1.482-.646,2.827,2.827,0,0,1-.456-1.938v-5.4h-1.71v5.719A4.06,4.06,0,0,0,317.87-.836ZM336.6-4.18a5.864,5.864,0,0,0,.057-.855A4.183,4.183,0,0,0,332.4-9.557a4.659,4.659,0,0,0-4.655,4.883A4.765,4.765,0,0,0,332.8.209a6.618,6.618,0,0,0,3.344-.874V-2.489a5.328,5.328,0,0,1-3.23,1.159,3.2,3.2,0,0,1-3.458-2.85Zm-4.237-3.838a2.531,2.531,0,0,1,2.641,2.489H329.5A2.855,2.855,0,0,1,332.367-8.018ZM339.093,0h1.71V-6.4a3.936,3.936,0,0,1,2.926-1.558,1.938,1.938,0,0,1,1.5.608,2.9,2.9,0,0,1,.437,1.9V0h1.71V-5.776a3.786,3.786,0,0,0-.779-2.755,3.234,3.234,0,0,0-2.489-1.026,4.635,4.635,0,0,0-3.268,1.406L340.8-8.17V-9.348h-1.71Zm18.468-2.261a4.352,4.352,0,0,1-2.7.912,3.22,3.22,0,0,1-3.439-3.268A3.274,3.274,0,0,1,354.806-8a4.928,4.928,0,0,1,2.6.8V-8.968a5.635,5.635,0,0,0-2.527-.589,4.943,4.943,0,0,0-5.187,4.94A4.79,4.79,0,0,0,354.768.209a6.04,6.04,0,0,0,2.793-.646ZM368.2-4.18a5.859,5.859,0,0,0,.057-.855A4.183,4.183,0,0,0,364-9.557a4.659,4.659,0,0,0-4.655,4.883A4.765,4.765,0,0,0,364.4.209a6.618,6.618,0,0,0,3.344-.874V-2.489a5.328,5.328,0,0,1-3.23,1.159,3.2,3.2,0,0,1-3.458-2.85Zm-4.237-3.838a2.531,2.531,0,0,1,2.641,2.489H361.1A2.855,2.855,0,0,1,363.964-8.018Zm6.46,7.467a7.86,7.86,0,0,0,3.5.76c2,0,3.933-.817,3.933-2.983,0-1.938-1.482-2.432-3.268-2.736-1.387-.247-2.717-.247-2.717-1.311,0-.836.836-1.2,2.033-1.2a7.1,7.1,0,0,1,3.42.912v-1.71a7.567,7.567,0,0,0-3.344-.741c-2.166,0-3.819.931-3.838,2.869,0,1.843,1.406,2.375,3.192,2.679,1.444.247,2.793.266,2.793,1.387,0,.912-.836,1.292-2.128,1.292a6.837,6.837,0,0,1-3.572-1.007Z" transform="translate(3089 -181)" fill="#9ea1ac"/>
    <g id="Group_38" data-name="Group 38" transform="translate(3229.207 -273.345)">
      <g id="Group_37" data-name="Group 37" clip-path="url(#clip-path)">
        <path id="Path_30" data-name="Path 30" d="M69.006,51.316h.007V15.593h-.007ZM64.776,0a5.351,5.351,0,0,0-5.362,5.308,5.328,5.328,0,0,0,10.655,0A5.337,5.337,0,0,0,64.776,0m4.229,22.051v8.573a.014.014,0,0,0,.007.014v-8.6s0,.011-.007.014m17.217,7.936C81.075,28.926,76.7,29,76.7,25.75c0-2.4,2.4-3.457,6.07-3.457a28.04,28.04,0,0,1,12.841,3.525V18.053A29.658,29.658,0,0,0,82.766,15.3c-4.856,0-9.014,1.3-11.652,3.82l-.338,13.767c1.972,1.744,4.913,2.763,8.459,3.517,5.294,1.129,9.74.986,9.74,4.447,0,2.61-2.471,3.738-6.351,3.738A27.45,27.45,0,0,1,70.562,41.5l-.189,7.725a31.1,31.1,0,0,0,12.112,2.357c8.185,0,15.1-3.6,15.1-11.435,0-6.632-4.728-8.751-11.364-10.161M18.844,42.675c-5.928,0-10.3-4.657-10.3-10.652s4.375-10.655,10.3-10.655a10.037,10.037,0,0,1,9.466,6.326,23.01,23.01,0,0,1,3.646-8.918,19.188,19.188,0,0,0-13.108-4.9C8.046,13.881,0,21.788,0,32.023S8.046,50.158,18.844,50.158A19.342,19.342,0,0,0,31.222,45.9a22.735,22.735,0,0,1-3.147-9.025,10.01,10.01,0,0,1-9.231,5.8M32.96,44.2c-.036.064-.075.125-.11.185.046-.046.093-.1.139-.146a.271.271,0,0,1-.028-.039m.9-23.394-.011.011.039.05a.464.464,0,0,0-.028-.061" transform="translate(0 0)" fill="#8448f5"/>
        <path id="Path_31" data-name="Path 31" d="M178.4,42.14v.591h-.007V78.454H169.86V42.14Z" transform="translate(-109.388 -27.138)" fill="#8448f5"/>
        <path id="Path_32" data-name="Path 32" d="M112.062,68.766a20.609,20.609,0,0,1-9.36,2.442c-5.856,0-10.445-2.962-11.5-8.751h20.709l-.4-16.209a16.226,16.226,0,0,0-11.271-4.258A17.6,17.6,0,0,0,87,47.843a.464.464,0,0,1,.028.061l-.039-.05A18.315,18.315,0,0,0,82.52,60.2,17.756,17.756,0,0,0,86.1,71.236a.271.271,0,0,0,.028.039c3.428,4.407,9.043,6.992,15.725,6.992a27.353,27.353,0,0,0,10.392-2.044Zm-11.9-19.858a8.13,8.13,0,0,1,8.327,7.622H91.2a8.949,8.949,0,0,1,8.964-7.622" transform="translate(-53.142 -27.041)" fill="#8448f5"/>
        <path id="Path_33" data-name="Path 33" d="M95.109,58.491l-.039-.05.011-.011a.462.462,0,0,1,.028.061" transform="translate(-61.224 -37.628)" fill="#8448f5"/>
        <rect id="Rectangle_27" data-name="Rectangle 27" width="0.007" height="35.722" transform="translate(69.006 15.593)" fill="#8448f5"/>
      </g>
    </g>
  </g>
</svg>
