<svg xmlns="http://www.w3.org/2000/svg" width="399.648" height="103.538" viewBox="0 0 399.648 103.538"><g transform="translate(527.92 446.658)"><path d="M18.309.765c9.792,0,16.83-7.191,16.83-17.85,0-10.506-6.477-16.83-15.759-16.83C9.69-33.915,2.3-26.877,2.3-16.269,2.3-5.559,8.976.765,18.309.765Zm.51-3.213c-5.763,0-9.384-5.2-9.384-14.637,0-8.568,3.621-13.617,9.384-13.617C24.48-30.7,28-25.143,28-16.32,28-7.038,24.429-2.448,18.819-2.448ZM64.77-10.3,60.639-3.57H50.184V-15.5H56.1l.255.255v3.876h3.264V-23.154H56.355v3.825l-.255.255H50.184V-29.58h9.588L63.7-22.848h.969v-10.3H39.219v.765l4.59,3.06V-3.672l-.255.255H39.729V0H65.586l.153-10.3ZM70.839,0H85.374V-3.57H81.549l-.255-.255v-25.5l4.59-3.06v-.765H70.329v.765l4.59,3.06v25.5l-.255.255H70.839Zm29.325.765c7.5,0,11.475-4.386,11.475-9.945,0-4.131-2.142-6.834-9.027-10.455-5.406-2.856-6.834-4.335-6.834-6.681a4.1,4.1,0,0,1,4.386-4.182,6.117,6.117,0,0,1,5,2.04l3.825,6.273h.765v-9.588a17.31,17.31,0,0,0-8.262-2.142c-6.375,0-11.067,3.621-11.067,9.486,0,4.743,3.009,7.752,8.466,10.455,5.967,2.958,7.395,4.692,7.395,6.987,0,2.805-1.989,4.284-5.151,4.284-2.5,0-4.641-.918-6.987-3.468l-2.958-5.712h-.867v10A20.136,20.136,0,0,0,100.164.765Z" transform="translate(-386 -385)" fill="#23202d"/><path d="M10.92-12.789,9.87-14.553l-1.722,1.7L8.736-15.2H6.7l.588,2.352-1.743-1.7L4.536-12.768l2.331.651-2.352.672,1.05,1.764,1.722-1.7L6.7-9.03H8.736l-.588-2.352,1.743,1.7L10.9-11.466l-2.331-.651Zm7.014,7.581c3.087,0,5.733-1.575,5.733-4.557,0-2.583-2.058-3.885-5.649-3.885H12.18v.315l1.89,1.26V-1.512l-.1.105H12.39V0h6.195V-1.407H16.8l-.1-.105v-3.7Zm-.126-6.972c1.764,0,3.045.84,3.045,2.6a2.825,2.825,0,0,1-3.066,2.9H16.695v-5.5Zm11.256,5.5a9.554,9.554,0,0,1,2.625.357V-9.03a1.49,1.49,0,0,0-.609-.105,4.756,4.756,0,0,0-2.772,1.554l-.273-1.512-.273-.147-3.15,1.617v.273l1.344.819v5.082l-.1.105h-.945V0h4.83V-1.344h-1.26l-.1-.105V-6.636C28.6-6.657,28.833-6.678,29.064-6.678Zm8.883,5.46c-1.722,0-2.688-1.239-2.835-3.255H40.32a5.69,5.69,0,0,0,.1-1.134A3.29,3.29,0,0,0,36.96-9.135a4.533,4.533,0,0,0-4.431,4.83A4.289,4.289,0,0,0,36.96.21a5.4,5.4,0,0,0,3.381-1.218l-.4-.735A4.492,4.492,0,0,1,37.947-1.218Zm-1.281-6.7c.861,0,1.386.588,1.428,2.352H35.112C35.2-7.1,35.742-7.917,36.666-7.917ZM54.1-1.743a3.668,3.668,0,0,1-1.554.462c-.84,0-1.155-.588-1.155-2.268V-7.476H54.18V-8.82H51.387v-2.5h-.273l-2.331,2.5H44.919v-2.5h-.273l-3.423,3.57v.273H42.4l.1.105v4.83C42.5-.525,43.365.21,44.877.21a4.956,4.956,0,0,0,3.15-1.218l-.4-.735a3.668,3.668,0,0,1-1.554.462c-.84,0-1.155-.588-1.155-2.268V-7.476h3.948l.1.105v4.83c0,2.016.861,2.751,2.373,2.751A4.956,4.956,0,0,0,54.5-1.008Zm3.8,6.888L60.291.462l3.675-7.833L65.31-8.547V-8.82H61.341v.294L62.5-7.371,60.522-2.9H60.4L58.443-7.371l1.176-1.176V-8.82H54.453v.294l1.365,1.155L59.367.168,55.083,3.8V3.99ZM72.03-12.789l-1.05-1.764-1.722,1.7.588-2.352H67.809l.588,2.352-1.743-1.7-1.008,1.785,2.331.651-2.352.672,1.05,1.764,1.722-1.7L67.809-9.03h2.037l-.588-2.352L71-9.681l1.008-1.785-2.331-.651Z" transform="matrix(0.966, -0.259, 0.259, 0.966, -433.057, -413.33)" fill="#23202d"/><path d="M8.616.36c4.608,0,7.92-3.384,7.92-8.4,0-4.944-3.048-7.92-7.416-7.92-4.56,0-8.04,3.312-8.04,8.3C1.08-2.616,4.224.36,8.616.36Zm.24-1.512C6.144-1.152,4.44-3.6,4.44-8.04c0-4.032,1.7-6.408,4.416-6.408,2.664,0,4.32,2.616,4.32,6.768C13.176-3.312,11.5-1.152,8.856-1.152ZM28.8-1.512l-.12-.144V-7.632a2.579,2.579,0,0,0-2.9-2.808A6.506,6.506,0,0,0,22.056-9l-.288-1.416-.312-.168-3.6,1.848v.312l1.536.936v5.832l-.12.12h-1.08V0h5.16V-1.536h-1.08l-.12-.12V-8.088A7.412,7.412,0,0,1,24-8.376c1.368,0,1.92.528,1.92,2.448v4.272l-.12.12H24.72V0h5.16V-1.512ZM30.96,0h5.16V-1.536H35.04l-.12-.12V-17.112l-.336-.168-3.96,1.92v.288l1.536.96V-1.656l-.12.12H30.96Zm8.832-12.336a1.665,1.665,0,0,0,1.656-1.68,1.659,1.659,0,0,0-1.656-1.656,1.665,1.665,0,0,0-1.68,1.656A1.67,1.67,0,0,0,39.792-12.336ZM37.3,0h5.16V-1.536h-1.08l-.12-.12v-8.808l-.312-.144-3.984,1.9v.288l1.536.96v5.808l-.12.12H37.3ZM54.12-1.512,54-1.656V-7.632a2.579,2.579,0,0,0-2.9-2.808A6.506,6.506,0,0,0,47.376-9l-.288-1.416-.312-.168-3.6,1.848v.312l1.536.936v5.832l-.12.12h-1.08V0h5.16V-1.536h-1.08l-.12-.12V-8.088a7.412,7.412,0,0,1,1.848-.288c1.368,0,1.92.528,1.92,2.448v4.272l-.12.12H50.04V0H55.2V-1.512Zm8.448.12c-1.968,0-3.072-1.416-3.24-3.72H65.28a6.5,6.5,0,0,0,.12-1.3,3.76,3.76,0,0,0-3.96-4.032c-2.952,0-5.064,2.424-5.064,5.52A4.9,4.9,0,0,0,61.44.24,6.176,6.176,0,0,0,65.3-1.152l-.456-.84A5.134,5.134,0,0,1,62.568-1.392ZM61.1-9.048c.984,0,1.584.672,1.632,2.688H59.328C59.424-8.112,60.048-9.048,61.1-9.048Zm22.32,4.2L81.48-1.68H76.56V-7.3h2.784l.12.12v1.824H81V-10.9H79.464v1.8l-.12.12H76.56V-13.92h4.512l1.848,3.168h.456V-15.6H71.4v.36l2.16,1.44V-1.728l-.12.12h-1.8V0H83.808l.072-4.848ZM96.5-1.512l-.12-.144V-7.632a2.579,2.579,0,0,0-2.9-2.808A6.506,6.506,0,0,0,89.76-9l-.288-1.416-.312-.168-3.6,1.848v.312l1.536.936v5.832l-.12.12H85.9V0h5.16V-1.536h-1.08l-.12-.12V-8.088A7.412,7.412,0,0,1,91.7-8.376c1.368,0,1.92.528,1.92,2.448v4.272l-.12.12h-1.08V0h5.16V-1.512ZM103.68.24a5.554,5.554,0,0,0,3.768-1.392l-.456-.84a3.926,3.926,0,0,1-2.088.576c-1.656,0-3.216-1.344-3.216-4.344,0-2.136.648-3.288,1.872-3.288a1.961,1.961,0,0,1,1.32.552L106.7-6.048h.312V-9.912a8.193,8.193,0,0,0-2.808-.528A5.279,5.279,0,0,0,98.76-4.848C98.76-1.776,100.68.24,103.68.24ZM111.5,5.88,114.24.528l4.2-8.952,1.536-1.344v-.312H115.44v.336l1.32,1.32L114.5-3.312h-.144l-2.232-5.112,1.344-1.344v-.312h-5.9v.336l1.56,1.32L113.184.192l-4.9,4.152V4.56ZM124.656.24a5.554,5.554,0,0,0,3.768-1.392l-.456-.84a3.926,3.926,0,0,1-2.088.576c-1.656,0-3.216-1.344-3.216-4.344,0-2.136.648-3.288,1.872-3.288a1.961,1.961,0,0,1,1.32.552l1.824,2.448h.312V-9.912a8.193,8.193,0,0,0-2.808-.528,5.279,5.279,0,0,0-5.448,5.592C119.736-1.776,121.656.24,124.656.24ZM129.408,0h5.16V-1.536h-1.08l-.12-.12V-17.112l-.336-.168-3.96,1.92v.288l1.536.96V-1.656l-.12.12h-1.08Zm11.376.24a5.119,5.119,0,0,0,5.232-5.472c0-3.264-2.136-5.208-4.944-5.208-3.12,0-5.232,2.424-5.232,5.592A4.75,4.75,0,0,0,140.784.24Zm.48-1.416c-1.44,0-2.5-1.92-2.5-4.656,0-1.968.7-3.12,1.824-3.12,1.44,0,2.5,1.92,2.5,4.656C143.088-2.328,142.392-1.176,141.264-1.176Zm13.368-9.264A5.629,5.629,0,0,0,151.248-8.9l-.312-1.488-.312-.168-3.6,1.848V-8.4l1.536.936V3.864l-.12.12h-1.08V5.52h5.52V3.984h-1.44l-.12-.12V-.12a4.3,4.3,0,0,0,1.8.36c3.024,0,5.184-2.472,5.184-5.64C158.3-8.376,156.744-10.44,154.632-10.44ZM153.216-1.2a2.138,2.138,0,0,1-1.9-1.152V-8.16a7.056,7.056,0,0,1,1.7-.216c1.416,0,2.352,1.224,2.352,3.624C155.376-2.568,154.656-1.2,153.216-1.2Zm12.84-.192c-1.968,0-3.072-1.416-3.24-3.72h5.952a6.5,6.5,0,0,0,.12-1.3,3.76,3.76,0,0,0-3.96-4.032c-2.952,0-5.064,2.424-5.064,5.52A4.9,4.9,0,0,0,164.928.24a6.175,6.175,0,0,0,3.864-1.392l-.456-.84A5.134,5.134,0,0,1,166.056-1.392Zm-1.464-7.656c.984,0,1.584.672,1.632,2.688h-3.408C162.912-8.112,163.536-9.048,164.592-9.048Zm15.6,7.512-.12-.12V-17.112l-.312-.168-3.984,1.92v.288l1.536.96v4.032a4.3,4.3,0,0,0-1.8-.36c-3.024,0-5.184,2.472-5.184,5.76,0,2.712,1.416,4.92,3.72,4.92a5.391,5.391,0,0,0,3.264-1.488V0h3.96V-1.536ZM175.8-1.824c-1.608,0-2.544-1.224-2.544-3.624,0-2.256.768-3.552,2.184-3.552a2.091,2.091,0,0,1,1.872,1.248V-2.04A6.187,6.187,0,0,1,175.8-1.824Zm9.264-10.512a1.665,1.665,0,0,0,1.656-1.68,1.659,1.659,0,0,0-1.656-1.656,1.665,1.665,0,0,0-1.68,1.656A1.67,1.67,0,0,0,185.064-12.336ZM182.568,0h5.16V-1.536h-1.08l-.12-.12v-8.808l-.312-.144-3.984,1.9v.288l1.536.96v5.808l-.12.12h-1.08Zm14.376-1.536-.12-.12v-4.68c0-2.664-1.008-4.1-3.528-4.1a5.629,5.629,0,0,0-4.152,1.776l.456.912a4.723,4.723,0,0,1,2.52-.888c1.392,0,1.944.84,1.944,2.472v.432c-4.152.432-5.352,1.824-5.352,3.624A2.195,2.195,0,0,0,191.088.264a5.433,5.433,0,0,0,2.976-1.1V0h3.96V-1.536Zm-4.176.072a1.2,1.2,0,0,1-1.368-1.32c.024-1.08.792-1.608,2.664-1.776v2.88A5.222,5.222,0,0,1,192.768-1.464ZM208.7.24a5.119,5.119,0,0,0,5.232-5.472c0-3.264-2.136-5.208-4.944-5.208-3.12,0-5.232,2.424-5.232,5.592A4.75,4.75,0,0,0,208.7.24Zm.48-1.416c-1.44,0-2.5-1.92-2.5-4.656,0-1.968.7-3.12,1.824-3.12,1.44,0,2.5,1.92,2.5,4.656C211.008-2.328,210.312-1.176,209.184-1.176ZM215.424,0h5.64V-1.536H219.5l-.12-.12V-8.4l.12-.144h2.808V-10.08H219.5l-.12-.12v-3.264c0-1.68.408-2.28,1.224-2.28a1.926,1.926,0,0,1,1.464.816l1.3,1.416h.192V-16.8a6.446,6.446,0,0,0-2.232-.408c-3.1,0-4.7,1.824-4.7,6.24v.768l-.12.12h-1.08v1.536h1.08l.12.144v6.744l-.12.12h-1.08ZM228.36,0h6.84V-1.68h-1.8l-.12-.12v-12l2.16-1.44v-.36h-7.32v.36l2.16,1.44v12l-.12.12h-1.8Zm18.864-1.512-.12-.144V-7.632a2.579,2.579,0,0,0-2.9-2.808A6.506,6.506,0,0,0,240.48-9l-.288-1.416-.312-.168-3.6,1.848v.312l1.536.936v5.832l-.12.12h-1.08V0h5.16V-1.536H240.7l-.12-.12V-8.088a7.412,7.412,0,0,1,1.848-.288c1.368,0,1.92.528,1.92,2.448v4.272l-.12.12h-1.08V0h5.16V-1.512ZM253.056.24a5.664,5.664,0,0,0,3.6-1.392l-.456-.84a4.192,4.192,0,0,1-1.776.528c-.96,0-1.32-.672-1.32-2.592V-8.544H256.3V-10.08H253.1v-2.856h-.312l-3.912,4.08v.312h1.344l.12.12V-2.9C250.344-.6,251.328.24,253.056.24ZM263.52-1.392c-1.968,0-3.072-1.416-3.24-3.72h5.952a6.5,6.5,0,0,0,.12-1.3,3.76,3.76,0,0,0-3.96-4.032c-2.952,0-5.064,2.424-5.064,5.52A4.9,4.9,0,0,0,262.392.24a6.176,6.176,0,0,0,3.864-1.392l-.456-.84A5.134,5.134,0,0,1,263.52-1.392Zm-1.464-7.656c.984,0,1.584.672,1.632,2.688H260.28C260.376-8.112,261-9.048,262.056-9.048Zm16.176-1.608-3,1.128a4.576,4.576,0,0,0-2.808-.912,4.255,4.255,0,0,0-4.488,4.1A3.252,3.252,0,0,0,269.424-3.5a4.268,4.268,0,0,0-1.656,2.976,1.753,1.753,0,0,0,.864,1.584,3.222,3.222,0,0,0-1.728,2.52c0,1.344,1.3,2.112,3.768,2.112,3.864,0,6.744-1.7,6.744-4.368,0-1.632-1.176-2.376-3.36-2.376h-2.3c-1.512,0-1.9-.384-1.9-.984A1.842,1.842,0,0,1,270.24-3.1a5.2,5.2,0,0,0,1.776.288c2.4,0,4.536-1.44,4.536-3.888a3.587,3.587,0,0,0-.6-2.04l2.016.624.336-.048v-2.424ZM272.28-3.984c-1.008,0-1.536-1.056-1.536-2.76,0-1.752.648-2.544,1.44-2.544.96,0,1.584,1.1,1.584,2.856C273.768-4.656,273.1-3.984,272.28-3.984Zm-1.368,5.52h2.352c1.008,0,1.728.1,1.728.84,0,1.152-1.728,1.824-3.576,1.824-1.488,0-2.28-.48-2.28-1.536a2.313,2.313,0,0,1,.384-1.272A5.769,5.769,0,0,0,270.912,1.536Zm14.064-2.928c-1.968,0-3.072-1.416-3.24-3.72h5.952a6.5,6.5,0,0,0,.12-1.3,3.76,3.76,0,0,0-3.96-4.032c-2.952,0-5.064,2.424-5.064,5.52A4.9,4.9,0,0,0,283.848.24a6.176,6.176,0,0,0,3.864-1.392l-.456-.84A5.134,5.134,0,0,1,284.976-1.392Zm-1.464-7.656c.984,0,1.584.672,1.632,2.688h-3.408C281.832-8.112,282.456-9.048,283.512-9.048Zm10.344,1.416a10.919,10.919,0,0,1,3,.408v-3.1a1.7,1.7,0,0,0-.7-.12,5.436,5.436,0,0,0-3.168,1.776l-.312-1.728-.312-.168-3.6,1.848V-8.4l1.536.936v5.808l-.12.12H289.1V0h5.52V-1.536h-1.44l-.12-.12V-7.584C293.328-7.608,293.592-7.632,293.856-7.632ZM307.536.36c3.528,0,5.4-2.064,5.4-4.68,0-1.944-1.008-3.216-4.248-4.92-2.544-1.344-3.216-2.04-3.216-3.144a1.928,1.928,0,0,1,2.064-1.968,2.879,2.879,0,0,1,2.352.96l1.8,2.952h.36v-4.512a8.146,8.146,0,0,0-3.888-1.008c-3,0-5.208,1.7-5.208,4.464,0,2.232,1.416,3.648,3.984,4.92,2.808,1.392,3.48,2.208,3.48,3.288,0,1.32-.936,2.016-2.424,2.016A4.232,4.232,0,0,1,304.7-2.9l-1.392-2.688H302.9v4.7A9.476,9.476,0,0,0,307.536.36Zm13.392-1.752c-1.968,0-3.072-1.416-3.24-3.72h5.952a6.5,6.5,0,0,0,.12-1.3,3.76,3.76,0,0,0-3.96-4.032c-2.952,0-5.064,2.424-5.064,5.52A4.9,4.9,0,0,0,319.8.24a6.176,6.176,0,0,0,3.864-1.392l-.456-.84A5.134,5.134,0,0,1,320.928-1.392Zm-1.464-7.656c.984,0,1.584.672,1.632,2.688h-3.408C317.784-8.112,318.408-9.048,319.464-9.048Zm15.6,13.032-.12-.12V-9.648a7.867,7.867,0,0,0-3.5-.792c-3.96,0-6.24,2.424-6.24,5.808,0,2.784,1.56,4.872,3.768,4.872a5.215,5.215,0,0,0,3.216-1.488V3.864l-.12.12h-1.44V5.52h5.52V3.984Zm-4.392-5.808c-1.68,0-2.544-1.176-2.544-3.432,0-2.424.72-3.744,2.184-3.744a2.376,2.376,0,0,1,1.872.96v6A5.936,5.936,0,0,1,330.672-1.824Zm16.608.288-.1-.12V-10.44l-.336-.168-3.96,1.92V-8.4l1.536.96v5.328a6,6,0,0,1-1.656.24c-1.32,0-1.872-.528-1.872-2.232v-6.168l-.336-.168L336.6-8.52v.288l1.536.96v4.68A2.515,2.515,0,0,0,340.9.24a5.362,5.362,0,0,0,3.528-1.68V0h3.936V-1.536Zm8.592.144c-1.968,0-3.072-1.416-3.24-3.72h5.952a6.5,6.5,0,0,0,.12-1.3,3.76,3.76,0,0,0-3.96-4.032c-2.952,0-5.064,2.424-5.064,5.52A4.9,4.9,0,0,0,354.744.24a6.176,6.176,0,0,0,3.864-1.392l-.456-.84A5.134,5.134,0,0,1,355.872-1.392Zm-1.464-7.656c.984,0,1.584.672,1.632,2.688h-3.408C352.728-8.112,353.352-9.048,354.408-9.048Zm16.2,7.536-.12-.144V-7.632a2.579,2.579,0,0,0-2.9-2.808A6.506,6.506,0,0,0,363.864-9l-.288-1.416-.312-.168-3.6,1.848v.312l1.536.936v5.832l-.12.12H360V0h5.16V-1.536h-1.08l-.12-.12V-8.088a7.412,7.412,0,0,1,1.848-.288c1.368,0,1.92.528,1.92,2.448v4.272l-.12.12h-1.08V0h5.16V-1.512ZM377.784.24a5.554,5.554,0,0,0,3.768-1.392l-.456-.84a3.926,3.926,0,0,1-2.088.576c-1.656,0-3.216-1.344-3.216-4.344,0-2.136.648-3.288,1.872-3.288a1.961,1.961,0,0,1,1.32.552l1.824,2.448h.312V-9.912a8.194,8.194,0,0,0-2.808-.528,5.279,5.279,0,0,0-5.448,5.592C372.864-1.776,374.784.24,377.784.24Zm11.04-1.632c-1.968,0-3.072-1.416-3.24-3.72h5.952a6.5,6.5,0,0,0,.12-1.3,3.76,3.76,0,0,0-3.96-4.032c-2.952,0-5.064,2.424-5.064,5.52A4.9,4.9,0,0,0,387.7.24a6.176,6.176,0,0,0,3.864-1.392l-.456-.84A5.134,5.134,0,0,1,388.824-1.392ZM387.36-9.048c.984,0,1.584.672,1.632,2.688h-3.408C385.68-8.112,386.3-9.048,387.36-9.048ZM396.816.24c2.472,0,3.912-1.176,3.912-3.12,0-1.416-.864-2.28-2.712-3.216-1.3-.648-2.3-1.128-2.3-2.016,0-.5.384-.936,1.128-.936a2.224,2.224,0,0,1,1.512.7L399.744-6.7h.312v-3.24a7.81,7.81,0,0,0-2.832-.5c-2.4,0-3.984,1.08-3.984,2.9,0,1.464.744,2.3,2.568,3.36,1.2.7,2.448,1.008,2.448,2.016,0,.552-.36,1.008-1.248,1.008a2.9,2.9,0,0,1-2.16-1.224l-1.32-1.632h-.312V-.552A9.439,9.439,0,0,0,396.816.24Z" transform="translate(-529 -349)" fill="#23202d"/></g></svg>