<svg xmlns="http://www.w3.org/2000/svg" xmlns:xlink="http://www.w3.org/1999/xlink" width="441" height="116.194" viewBox="0 0 441 116.194">
  <defs>
    <filter id="Rectangle_49" x="259" y="0" width="88" height="88" filterUnits="userSpaceOnUse">
      <feOffset dy="3" input="SourceAlpha"/>
      <feGaussianBlur stdDeviation="5" result="blur"/>
      <feFlood flood-opacity="0.09"/>
      <feComposite operator="in" in2="blur"/>
      <feComposite in="SourceGraphic"/>
    </filter>
  </defs>
  <g id="Group_76" data-name="Group 76" transform="translate(-739 -305)">
    <text id="All_your_favourite_integer_sequences_all_in_one_place." data-name="All your favourite integer sequences, all in one place." transform="translate(739 416.194)" fill="#3b1f71" font-size="19" font-family="Roboto-Regular, Roboto" opacity="0.489"><tspan x="0" y="0">All your favourite integer sequences, all in one place.</tspan></text>
    <g id="Group_57" data-name="Group 57" transform="translate(-37.102 205.039)">
      <path id="Path_77" data-name="Path 77" d="M106.643.8V41.366H99.1V37.83a10.783,10.783,0,0,1-9,4.368c-7.8,0-13.521-6.553-13.521-15.029,0-8.372,5.773-15.132,13.625-15.132a10.694,10.694,0,0,1,8.372,3.8V.8ZM99.258,27.065a7.33,7.33,0,0,0-7.228-7.592c-4.16,0-7.02,3.432-7.02,7.7,0,4.316,2.86,7.644,7.02,7.644s7.228-3.38,7.228-7.748" transform="translate(887.205 119.958)" fill="#3b1f71"/>
      <path id="Path_78" data-name="Path 78" d="M145.591,26.6a15.33,15.33,0,0,1-15.5,15.6c-9.152,0-15.237-6.812-15.237-15.86V.8h8.32V15.78a11,11,0,0,1,8.685-3.744c7.7,0,13.728,6.24,13.728,14.56m-8.372.521c0-4.316-2.912-7.645-7.021-7.645-4.211,0-7.228,3.329-7.228,7.7,0,4.263,2.965,7.643,7.228,7.643,4.109,0,7.021-3.431,7.021-7.695" transform="translate(885.205 119.958)" fill="#3b1f71"/>
      <g id="Group_56" data-name="Group 56">
        <rect id="Rectangle_36" data-name="Rectangle 36" width="8.684" height="28.498" transform="translate(890.456 132.825)" fill="#8448f5"/>
        <path id="Path_75" data-name="Path 75" d="M47.727,23.529V41.366H38.783V25.661c0-4.056-2.029-6.447-5.513-6.447-3.588,0-6.24,2.755-6.24,7.019V41.366H18.086v-28.5h8.476v4.524a11.327,11.327,0,0,1,9.933-5.356c6.812,0,11.232,4.368,11.232,11.492" transform="translate(888.205 119.958)" fill="#8448f5"/>
        <path id="Path_76" data-name="Path 76" d="M65.511,20.045V30.7c0,2.288,1.248,3.692,3.588,3.692a7.416,7.416,0,0,0,2.756-.52v7.488a10.666,10.666,0,0,1-4.368.832c-6.6,0-10.608-4.16-10.608-11.232V20.045H52.771V12.868h4.108V4.912h8.632v7.956h6.344v7.177Z" transform="translate(887.205 119.958)" fill="#8448f5"/>
        <path id="Path_79" data-name="Path 79" d="M8.571,6.89A4.593,4.593,0,1,1,6.89.616,4.593,4.593,0,0,1,8.571,6.89" transform="translate(890.205 119.958)" fill="#8448f5"/>
      </g>
    </g>
    <g id="Group_75" data-name="Group 75" transform="translate(-7)">
      <g id="Group_73" data-name="Group 73" transform="translate(1009.723 309.104)">
        <g id="Group_71" data-name="Group 71">
          <g transform="matrix(1, 0, 0, 1, -263.72, -4.1)" filter="url(#Rectangle_49)">
            <rect id="Rectangle_49-2" data-name="Rectangle 49" width="58" height="58" rx="12" transform="translate(274 12)" fill="#fff"/>
          </g>
        </g>
        <g id="Group_72" data-name="Group 72">
          <path id="Path_81" data-name="Path 81" d="M51.979,51.424H38.656a1.025,1.025,0,0,1-.5-.129,1,1,0,0,1-.377-1.363l15.349-27.17a1.876,1.876,0,0,0,.24-.917V20.507a1.859,1.859,0,0,0-1.86-1.86H27.056a1.861,1.861,0,0,0,0,3.721H39.427a1,1,0,0,1,.875,1.5L24.955,51.03a1.927,1.927,0,0,0-.24.917v1.337a1.864,1.864,0,0,0,1.86,1.863h25.4a1.854,1.854,0,0,0,1.32-.54,1.819,1.819,0,0,0,.54-1.32,1.864,1.864,0,0,0-1.86-1.86M48.541,23.868,33.254,50.918a1.019,1.019,0,0,1-.875.506H30.415a1.025,1.025,0,0,1-.5-.129,1,1,0,0,1-.377-1.363L44.815,22.874a1,1,0,0,1,.866-.506H47.67a1.024,1.024,0,0,1,.5.129,1,1,0,0,1,.472.609,1.033,1.033,0,0,1-.094.763" fill="#8448f5"/>
        </g>
      </g>
    </g>
  </g>
</svg>
