<svg xmlns="http://www.w3.org/2000/svg" xmlns:xlink="http://www.w3.org/1999/xlink" width="414.679" height="115.146" viewBox="0 0 414.679 115.146">
  <defs>
    <filter id="Rectangle_49" x="258.861" y="0" width="88" height="88" filterUnits="userSpaceOnUse">
      <feOffset dy="3" input="SourceAlpha"/>
      <feGaussianBlur stdDeviation="5" result="blur"/>
      <feFlood flood-opacity="0.09"/>
      <feComposite operator="in" in2="blur"/>
      <feComposite in="SourceGraphic"/>
    </filter>
  </defs>
  <g id="Group_76" data-name="Group 76" transform="translate(-739.139 -305)">
    <path id="Path_82" data-name="Path 82" d="M5.687-6.726l3.525-6.782h2.022L6.578-5.038V0H4.8V-5.038L.139-13.508H2.18Zm5.965,1.614a5.929,5.929,0,0,1,.58-2.653,4.325,4.325,0,0,1,1.614-1.818,4.394,4.394,0,0,1,2.361-.64A4.233,4.233,0,0,1,19.524-8.8a5.461,5.461,0,0,1,1.266,3.776v.121a5.981,5.981,0,0,1-.561,2.63,4.262,4.262,0,0,1-1.6,1.814,4.445,4.445,0,0,1-2.4.649,4.223,4.223,0,0,1-3.307-1.419,5.433,5.433,0,0,1-1.266-3.757Zm1.726.2a4.294,4.294,0,0,0,.775,2.681,2.479,2.479,0,0,0,2.073,1.011A2.464,2.464,0,0,0,18.3-2.24a4.7,4.7,0,0,0,.77-2.871,4.287,4.287,0,0,0-.784-2.677,2.492,2.492,0,0,0-2.083-1.025A2.465,2.465,0,0,0,14.157-7.8,4.661,4.661,0,0,0,13.378-4.908ZM29.14-.993A3.646,3.646,0,0,1,26.2.186a3.12,3.12,0,0,1-2.445-.932,4.036,4.036,0,0,1-.849-2.76v-6.531h1.716v6.485q0,2.282,1.855,2.282a2.569,2.569,0,0,0,2.616-1.466v-7.3H30.81V0H29.177ZM38.269-8.5a5.143,5.143,0,0,0-.844-.065,2.262,2.262,0,0,0-2.292,1.438V0H33.417V-10.038h1.67l.028,1.16a2.672,2.672,0,0,1,2.394-1.345,1.753,1.753,0,0,1,.761.13ZM45.394,0V-8.711H43.808v-1.327h1.586v-1.03a3.418,3.418,0,0,1,.863-2.5,3.259,3.259,0,0,1,2.44-.881,4.5,4.5,0,0,1,1.178.158L49.782-12.9a4.929,4.929,0,0,0-.928-.083,1.677,1.677,0,0,0-1.29.487,1.971,1.971,0,0,0-.455,1.4v1.058h2.143v1.327H47.11V0ZM57.343,0A3.605,3.605,0,0,1,57.1-1.058,3.829,3.829,0,0,1,54.245.186a3.543,3.543,0,0,1-2.435-.84,2.716,2.716,0,0,1-.951-2.129,2.838,2.838,0,0,1,1.192-2.435A5.621,5.621,0,0,1,55.4-6.086h1.67v-.789a1.928,1.928,0,0,0-.538-1.433,2.163,2.163,0,0,0-1.586-.533,2.5,2.5,0,0,0-1.54.464,1.367,1.367,0,0,0-.622,1.123H51.063A2.369,2.369,0,0,1,51.6-8.707a3.641,3.641,0,0,1,1.447-1.109,4.869,4.869,0,0,1,2.009-.408,3.968,3.968,0,0,1,2.718.867,3.129,3.129,0,0,1,1.021,2.389v4.62a5.649,5.649,0,0,0,.353,2.2V0ZM54.5-1.308a3.016,3.016,0,0,0,1.531-.417,2.525,2.525,0,0,0,1.048-1.085v-2.06H55.729q-3.154,0-3.154,1.846a1.562,1.562,0,0,0,.538,1.262A2.068,2.068,0,0,0,54.5-1.308ZM64.654-2.329l2.486-7.709h1.753L65.294,0H63.986L60.349-10.038H62.1Zm5.3-2.783a5.929,5.929,0,0,1,.58-2.653,4.326,4.326,0,0,1,1.614-1.818,4.394,4.394,0,0,1,2.361-.64A4.233,4.233,0,0,1,77.823-8.8a5.461,5.461,0,0,1,1.266,3.776v.121a5.981,5.981,0,0,1-.561,2.63,4.262,4.262,0,0,1-1.6,1.814,4.445,4.445,0,0,1-2.4.649,4.223,4.223,0,0,1-3.307-1.419,5.433,5.433,0,0,1-1.266-3.757Zm1.726.2a4.294,4.294,0,0,0,.775,2.681,2.479,2.479,0,0,0,2.073,1.011A2.464,2.464,0,0,0,76.6-2.24a4.7,4.7,0,0,0,.77-2.871,4.287,4.287,0,0,0-.784-2.677,2.492,2.492,0,0,0-2.083-1.025A2.465,2.465,0,0,0,72.456-7.8,4.661,4.661,0,0,0,71.677-4.908ZM87.439-.993A3.646,3.646,0,0,1,84.5.186a3.12,3.12,0,0,1-2.445-.932,4.036,4.036,0,0,1-.849-2.76v-6.531h1.716v6.485q0,2.282,1.855,2.282a2.569,2.569,0,0,0,2.616-1.466v-7.3h1.716V0H87.476ZM96.568-8.5a5.143,5.143,0,0,0-.844-.065,2.262,2.262,0,0,0-2.292,1.438V0H91.716V-10.038h1.67l.028,1.16a2.673,2.673,0,0,1,2.394-1.345,1.753,1.753,0,0,1,.761.13ZM100.01,0H98.293V-10.038h1.716ZM98.154-12.7a1.025,1.025,0,0,1,.255-.705.958.958,0,0,1,.756-.288.973.973,0,0,1,.761.288,1.014,1.014,0,0,1,.26.705.98.98,0,0,1-.26.7.99.99,0,0,1-.761.278A.975.975,0,0,1,98.409-12,.991.991,0,0,1,98.154-12.7Zm6.93.232v2.431h1.874v1.327h-1.874v6.225a1.39,1.39,0,0,0,.25.9,1.055,1.055,0,0,0,.854.3A4.155,4.155,0,0,0,107-1.392V0a4.976,4.976,0,0,1-1.317.186,2.137,2.137,0,0,1-1.735-.7,2.989,2.989,0,0,1-.584-1.976V-8.711h-1.828v-1.327h1.828v-2.431ZM113.128.186a4.386,4.386,0,0,1-3.321-1.341,4.976,4.976,0,0,1-1.28-3.586v-.315a6.024,6.024,0,0,1,.571-2.667,4.451,4.451,0,0,1,1.6-1.837,4.012,4.012,0,0,1,2.222-.663,3.759,3.759,0,0,1,3.043,1.29,5.583,5.583,0,0,1,1.085,3.692v.714h-6.8a3.568,3.568,0,0,0,.867,2.4,2.727,2.727,0,0,0,2.111.914,2.989,2.989,0,0,0,1.54-.371,3.87,3.87,0,0,0,1.1-.983l1.048.816A4.215,4.215,0,0,1,113.128.186Zm-.213-9a2.289,2.289,0,0,0-1.744.756,3.675,3.675,0,0,0-.872,2.12h5.028v-.13a3.269,3.269,0,0,0-.705-2.027A2.155,2.155,0,0,0,112.915-8.813ZM125.6,0H123.88V-10.038H125.6Zm-1.855-12.7a1.025,1.025,0,0,1,.255-.705.958.958,0,0,1,.756-.288.973.973,0,0,1,.761.288,1.014,1.014,0,0,1,.26.705.98.98,0,0,1-.26.7.99.99,0,0,1-.761.278A.975.975,0,0,1,124-12,.991.991,0,0,1,123.741-12.7Zm6.225,2.663.056,1.262a3.658,3.658,0,0,1,3.006-1.447q3.182,0,3.21,3.59V0h-1.716V-6.643a2.311,2.311,0,0,0-.5-1.6,1.989,1.989,0,0,0-1.517-.52,2.477,2.477,0,0,0-1.466.445,3.024,3.024,0,0,0-.983,1.169V0h-1.716V-10.038Zm11.188-2.431v2.431h1.874v1.327h-1.874v6.225a1.39,1.39,0,0,0,.25.9,1.055,1.055,0,0,0,.854.3,4.155,4.155,0,0,0,.816-.111V0a4.976,4.976,0,0,1-1.317.186,2.137,2.137,0,0,1-1.735-.7,2.989,2.989,0,0,1-.584-1.976V-8.711h-1.828v-1.327h1.828v-2.431ZM149.2.186a4.386,4.386,0,0,1-3.321-1.341,4.976,4.976,0,0,1-1.28-3.586v-.315a6.024,6.024,0,0,1,.571-2.667,4.451,4.451,0,0,1,1.6-1.837,4.012,4.012,0,0,1,2.222-.663,3.759,3.759,0,0,1,3.043,1.29,5.583,5.583,0,0,1,1.085,3.692v.714h-6.8a3.568,3.568,0,0,0,.867,2.4,2.727,2.727,0,0,0,2.111.914,2.989,2.989,0,0,0,1.54-.371,3.869,3.869,0,0,0,1.1-.983l1.048.816A4.215,4.215,0,0,1,149.2.186Zm-.213-9a2.289,2.289,0,0,0-1.744.756,3.675,3.675,0,0,0-.872,2.12H151.4v-.13a3.269,3.269,0,0,0-.705-2.027A2.155,2.155,0,0,0,148.985-8.813ZM154.69-5.1a5.9,5.9,0,0,1,1.085-3.734,3.471,3.471,0,0,1,2.876-1.387,3.453,3.453,0,0,1,2.867,1.3l.083-1.113h1.568v9.8a4.084,4.084,0,0,1-1.155,3.071,4.262,4.262,0,0,1-3.1,1.123,5.163,5.163,0,0,1-2.125-.464A3.657,3.657,0,0,1,155.2,2.217l.891-1.03a3.356,3.356,0,0,0,2.7,1.364,2.63,2.63,0,0,0,1.953-.705,2.7,2.7,0,0,0,.7-1.985V-1A3.528,3.528,0,0,1,158.633.186a3.429,3.429,0,0,1-2.853-1.419A6.2,6.2,0,0,1,154.69-5.1Zm1.726.195a4.5,4.5,0,0,0,.7,2.667,2.261,2.261,0,0,0,1.948.969,2.514,2.514,0,0,0,2.384-1.475V-7.329a2.543,2.543,0,0,0-2.366-1.438,2.281,2.281,0,0,0-1.958.974A4.9,4.9,0,0,0,156.416-4.908ZM169.924.186A4.386,4.386,0,0,1,166.6-1.155a4.976,4.976,0,0,1-1.28-3.586v-.315a6.024,6.024,0,0,1,.571-2.667,4.451,4.451,0,0,1,1.6-1.837,4.012,4.012,0,0,1,2.222-.663,3.759,3.759,0,0,1,3.043,1.29,5.583,5.583,0,0,1,1.085,3.692v.714h-6.8a3.568,3.568,0,0,0,.867,2.4,2.727,2.727,0,0,0,2.111.914,2.989,2.989,0,0,0,1.54-.371,3.869,3.869,0,0,0,1.1-.983l1.048.816A4.215,4.215,0,0,1,169.924.186Zm-.213-9a2.289,2.289,0,0,0-1.744.756,3.675,3.675,0,0,0-.872,2.12h5.028v-.13a3.269,3.269,0,0,0-.705-2.027A2.155,2.155,0,0,0,169.71-8.813Zm10.966.315a5.143,5.143,0,0,0-.844-.065,2.262,2.262,0,0,0-2.292,1.438V0h-1.716V-10.038h1.67l.028,1.16a2.672,2.672,0,0,1,2.394-1.345,1.753,1.753,0,0,1,.761.13ZM192.8-2.663a1.264,1.264,0,0,0-.524-1.081,5.045,5.045,0,0,0-1.828-.663,8.641,8.641,0,0,1-2.069-.668A2.943,2.943,0,0,1,187.249-6a2.219,2.219,0,0,1-.366-1.28,2.6,2.6,0,0,1,1.044-2.087,4.076,4.076,0,0,1,2.667-.854,4.194,4.194,0,0,1,2.769.881,2.8,2.8,0,0,1,1.062,2.254H192.7a1.549,1.549,0,0,0-.6-1.215,2.242,2.242,0,0,0-1.508-.51,2.346,2.346,0,0,0-1.466.408,1.285,1.285,0,0,0-.529,1.067,1.041,1.041,0,0,0,.492.937,6.05,6.05,0,0,0,1.777.6,9.257,9.257,0,0,1,2.083.687,3.038,3.038,0,0,1,1.183.96,2.361,2.361,0,0,1,.385,1.368,2.569,2.569,0,0,1-1.076,2.157,4.514,4.514,0,0,1-2.792.812,5.055,5.055,0,0,1-2.134-.427,3.47,3.47,0,0,1-1.452-1.192,2.873,2.873,0,0,1-.524-1.656h1.716a1.777,1.777,0,0,0,.691,1.368,2.681,2.681,0,0,0,1.7.506,2.768,2.768,0,0,0,1.563-.394A1.212,1.212,0,0,0,192.8-2.663ZM200.919.186A4.386,4.386,0,0,1,197.6-1.155a4.976,4.976,0,0,1-1.28-3.586v-.315a6.024,6.024,0,0,1,.571-2.667,4.451,4.451,0,0,1,1.6-1.837,4.012,4.012,0,0,1,2.222-.663,3.759,3.759,0,0,1,3.043,1.29,5.583,5.583,0,0,1,1.085,3.692v.714h-6.8a3.568,3.568,0,0,0,.867,2.4,2.727,2.727,0,0,0,2.111.914,2.989,2.989,0,0,0,1.54-.371,3.869,3.869,0,0,0,1.1-.983l1.048.816A4.215,4.215,0,0,1,200.919.186Zm-.213-9a2.289,2.289,0,0,0-1.744.756,3.675,3.675,0,0,0-.872,2.12h5.028v-.13a3.269,3.269,0,0,0-.705-2.027A2.155,2.155,0,0,0,200.706-8.813ZM206.4-5.1a5.892,5.892,0,0,1,1.085-3.743,3.517,3.517,0,0,1,2.913-1.378,3.515,3.515,0,0,1,2.811,1.2l.074-1.011h1.577v13.9h-1.716V-.928A3.6,3.6,0,0,1,210.382.186a3.462,3.462,0,0,1-2.9-1.415A6.023,6.023,0,0,1,206.4-4.982Zm1.716.195a4.466,4.466,0,0,0,.728,2.709,2.317,2.317,0,0,0,1.962.983,2.57,2.57,0,0,0,2.338-1.354V-7.487a2.578,2.578,0,0,0-2.319-1.327,2.334,2.334,0,0,0-1.976.988A4.862,4.862,0,0,0,208.119-4.908Zm15.7,3.915A3.646,3.646,0,0,1,220.875.186a3.12,3.12,0,0,1-2.445-.932,4.036,4.036,0,0,1-.849-2.76v-6.531H219.3v6.485q0,2.282,1.855,2.282a2.569,2.569,0,0,0,2.616-1.466v-7.3h1.716V0h-1.633ZM232.258.186a4.386,4.386,0,0,1-3.321-1.341,4.976,4.976,0,0,1-1.28-3.586v-.315a6.024,6.024,0,0,1,.571-2.667,4.451,4.451,0,0,1,1.6-1.837,4.012,4.012,0,0,1,2.222-.663,3.759,3.759,0,0,1,3.043,1.29,5.583,5.583,0,0,1,1.085,3.692v.714h-6.8a3.568,3.568,0,0,0,.867,2.4,2.727,2.727,0,0,0,2.111.914,2.989,2.989,0,0,0,1.54-.371A3.869,3.869,0,0,0,235-2.57l1.048.816A4.215,4.215,0,0,1,232.258.186Zm-.213-9a2.289,2.289,0,0,0-1.744.756,3.675,3.675,0,0,0-.872,2.12h5.028v-.13a3.269,3.269,0,0,0-.705-2.027A2.155,2.155,0,0,0,232.045-8.813Zm7.737-1.225.056,1.262a3.658,3.658,0,0,1,3.006-1.447q3.182,0,3.21,3.59V0h-1.716V-6.643a2.311,2.311,0,0,0-.5-1.6,1.989,1.989,0,0,0-1.517-.52,2.477,2.477,0,0,0-1.466.445,3.024,3.024,0,0,0-.983,1.169V0h-1.716V-10.038Zm12.886,8.823a2.472,2.472,0,0,0,1.6-.557,1.958,1.958,0,0,0,.761-1.392h1.624a3.112,3.112,0,0,1-.594,1.642A3.911,3.911,0,0,1,254.6-.278a4.216,4.216,0,0,1-1.934.464,4.135,4.135,0,0,1-3.261-1.368A5.45,5.45,0,0,1,248.2-4.926v-.288a6.043,6.043,0,0,1,.538-2.607,4.1,4.1,0,0,1,1.545-1.772,4.388,4.388,0,0,1,2.38-.631,4.026,4.026,0,0,1,2.806,1.011,3.614,3.614,0,0,1,1.192,2.625h-1.624a2.365,2.365,0,0,0-.738-1.6,2.294,2.294,0,0,0-1.637-.626,2.4,2.4,0,0,0-2.027.942,4.422,4.422,0,0,0-.719,2.723v.325a4.334,4.334,0,0,0,.714,2.672A2.414,2.414,0,0,0,252.668-1.215Zm10.084,1.4a4.386,4.386,0,0,1-3.321-1.341,4.976,4.976,0,0,1-1.28-3.586v-.315a6.024,6.024,0,0,1,.571-2.667,4.451,4.451,0,0,1,1.6-1.837,4.012,4.012,0,0,1,2.222-.663,3.759,3.759,0,0,1,3.043,1.29,5.583,5.583,0,0,1,1.085,3.692v.714h-6.8a3.568,3.568,0,0,0,.867,2.4,2.727,2.727,0,0,0,2.111.914,2.989,2.989,0,0,0,1.54-.371,3.87,3.87,0,0,0,1.1-.983l1.048.816A4.215,4.215,0,0,1,262.753.186Zm-.213-9a2.289,2.289,0,0,0-1.744.756,3.675,3.675,0,0,0-.872,2.12h5.028v-.13a3.269,3.269,0,0,0-.705-2.027A2.155,2.155,0,0,0,262.54-8.813ZM274.5-2.663a1.263,1.263,0,0,0-.524-1.081,5.045,5.045,0,0,0-1.828-.663,8.641,8.641,0,0,1-2.069-.668A2.943,2.943,0,0,1,268.946-6a2.219,2.219,0,0,1-.366-1.28,2.6,2.6,0,0,1,1.044-2.087,4.076,4.076,0,0,1,2.667-.854,4.194,4.194,0,0,1,2.769.881,2.8,2.8,0,0,1,1.062,2.254H274.4a1.549,1.549,0,0,0-.6-1.215,2.242,2.242,0,0,0-1.508-.51,2.347,2.347,0,0,0-1.466.408,1.285,1.285,0,0,0-.529,1.067,1.041,1.041,0,0,0,.492.937,6.05,6.05,0,0,0,1.777.6,9.257,9.257,0,0,1,2.083.687,3.038,3.038,0,0,1,1.183.96,2.361,2.361,0,0,1,.385,1.368,2.569,2.569,0,0,1-1.076,2.157,4.514,4.514,0,0,1-2.792.812,5.055,5.055,0,0,1-2.134-.427,3.47,3.47,0,0,1-1.452-1.192,2.873,2.873,0,0,1-.524-1.656h1.716a1.777,1.777,0,0,0,.691,1.368,2.681,2.681,0,0,0,1.7.506,2.768,2.768,0,0,0,1.563-.394A1.212,1.212,0,0,0,274.5-2.663Zm3.9,5.353-.974-.668a4.477,4.477,0,0,0,.909-2.5V-2.032h1.679V-.687a4.226,4.226,0,0,1-.459,1.874A4.387,4.387,0,0,1,278.395,2.69ZM293.081,0a3.605,3.605,0,0,1-.241-1.058A3.829,3.829,0,0,1,289.982.186a3.543,3.543,0,0,1-2.435-.84,2.716,2.716,0,0,1-.951-2.129,2.838,2.838,0,0,1,1.192-2.435,5.621,5.621,0,0,1,3.354-.867h1.67v-.789a1.928,1.928,0,0,0-.538-1.433,2.163,2.163,0,0,0-1.586-.533,2.5,2.5,0,0,0-1.54.464,1.367,1.367,0,0,0-.622,1.123H286.8a2.369,2.369,0,0,1,.533-1.452,3.641,3.641,0,0,1,1.447-1.109,4.869,4.869,0,0,1,2.009-.408,3.968,3.968,0,0,1,2.718.867,3.129,3.129,0,0,1,1.021,2.389v4.62a5.649,5.649,0,0,0,.353,2.2V0Zm-2.848-1.308a3.016,3.016,0,0,0,1.531-.417,2.525,2.525,0,0,0,1.048-1.085v-2.06h-1.345q-3.154,0-3.154,1.846a1.562,1.562,0,0,0,.538,1.262A2.068,2.068,0,0,0,290.232-1.308ZM299.083,0h-1.716V-14.25h1.716Zm4.611,0h-1.716V-14.25h1.716Zm9.314,0h-1.716V-10.038h1.716Zm-1.855-12.7a1.025,1.025,0,0,1,.255-.705.958.958,0,0,1,.756-.288.973.973,0,0,1,.761.288,1.014,1.014,0,0,1,.26.705.98.98,0,0,1-.26.7.99.99,0,0,1-.761.278.975.975,0,0,1-.756-.278A.991.991,0,0,1,311.153-12.7Zm6.225,2.663.056,1.262a3.658,3.658,0,0,1,3.006-1.447q3.182,0,3.21,3.59V0h-1.716V-6.643a2.311,2.311,0,0,0-.5-1.6,1.989,1.989,0,0,0-1.517-.52,2.477,2.477,0,0,0-1.466.445,3.024,3.024,0,0,0-.983,1.169V0h-1.716V-10.038Zm13.109,4.926a5.929,5.929,0,0,1,.58-2.653,4.326,4.326,0,0,1,1.614-1.818,4.394,4.394,0,0,1,2.361-.64A4.233,4.233,0,0,1,338.359-8.8a5.461,5.461,0,0,1,1.266,3.776v.121a5.981,5.981,0,0,1-.561,2.63,4.262,4.262,0,0,1-1.6,1.814,4.445,4.445,0,0,1-2.4.649,4.223,4.223,0,0,1-3.307-1.419,5.433,5.433,0,0,1-1.266-3.757Zm1.726.2a4.294,4.294,0,0,0,.775,2.681,2.479,2.479,0,0,0,2.073,1.011,2.464,2.464,0,0,0,2.078-1.025,4.7,4.7,0,0,0,.77-2.871,4.287,4.287,0,0,0-.784-2.677,2.492,2.492,0,0,0-2.083-1.025,2.465,2.465,0,0,0-2.05,1.011A4.661,4.661,0,0,0,332.212-4.908Zm11.188-5.13.056,1.262a3.658,3.658,0,0,1,3.006-1.447q3.182,0,3.21,3.59V0h-1.716V-6.643a2.311,2.311,0,0,0-.5-1.6,1.989,1.989,0,0,0-1.517-.52,2.477,2.477,0,0,0-1.466.445,3.024,3.024,0,0,0-.983,1.169V0h-1.716V-10.038ZM356.426.186A4.386,4.386,0,0,1,353.1-1.155a4.976,4.976,0,0,1-1.28-3.586v-.315a6.024,6.024,0,0,1,.571-2.667,4.451,4.451,0,0,1,1.6-1.837,4.012,4.012,0,0,1,2.222-.663,3.759,3.759,0,0,1,3.043,1.29,5.583,5.583,0,0,1,1.085,3.692v.714h-6.8a3.568,3.568,0,0,0,.867,2.4,2.727,2.727,0,0,0,2.111.914,2.989,2.989,0,0,0,1.54-.371,3.87,3.87,0,0,0,1.1-.983l1.048.816A4.215,4.215,0,0,1,356.426.186Zm-.213-9a2.289,2.289,0,0,0-1.744.756,3.675,3.675,0,0,0-.872,2.12h5.028v-.13a3.269,3.269,0,0,0-.705-2.027A2.155,2.155,0,0,0,356.213-8.813Zm19.3,3.906a6.011,6.011,0,0,1-1.048,3.692,3.36,3.36,0,0,1-2.839,1.4,3.681,3.681,0,0,1-2.876-1.16V3.859H367.03v-13.9H368.6l.083,1.113a3.536,3.536,0,0,1,2.913-1.3,3.423,3.423,0,0,1,2.862,1.364,6.076,6.076,0,0,1,1.053,3.794ZM373.793-5.1a4.435,4.435,0,0,0-.724-2.681,2.331,2.331,0,0,0-1.985-.983,2.523,2.523,0,0,0-2.338,1.382v4.8A2.528,2.528,0,0,0,371.1-1.215a2.32,2.32,0,0,0,1.962-.979A4.841,4.841,0,0,0,373.793-5.1ZM379.555,0h-1.716V-14.25h1.716ZM388.5,0a3.605,3.605,0,0,1-.241-1.058A3.829,3.829,0,0,1,385.4.186a3.543,3.543,0,0,1-2.435-.84,2.716,2.716,0,0,1-.951-2.129,2.838,2.838,0,0,1,1.192-2.435,5.621,5.621,0,0,1,3.354-.867h1.67v-.789a1.928,1.928,0,0,0-.538-1.433,2.163,2.163,0,0,0-1.586-.533,2.5,2.5,0,0,0-1.54.464,1.367,1.367,0,0,0-.622,1.123h-1.726a2.369,2.369,0,0,1,.533-1.452A3.641,3.641,0,0,1,384.2-9.815a4.869,4.869,0,0,1,2.009-.408,3.968,3.968,0,0,1,2.718.867,3.129,3.129,0,0,1,1.021,2.389v4.62a5.649,5.649,0,0,0,.353,2.2V0ZM385.65-1.308a3.016,3.016,0,0,0,1.531-.417,2.525,2.525,0,0,0,1.048-1.085v-2.06h-1.345q-3.154,0-3.154,1.846a1.562,1.562,0,0,0,.538,1.262A2.068,2.068,0,0,0,385.65-1.308Zm11.012.093a2.472,2.472,0,0,0,1.6-.557,1.958,1.958,0,0,0,.761-1.392h1.624a3.112,3.112,0,0,1-.594,1.642A3.91,3.91,0,0,1,398.6-.278a4.216,4.216,0,0,1-1.934.464A4.135,4.135,0,0,1,393.4-1.183a5.45,5.45,0,0,1-1.211-3.743v-.288a6.043,6.043,0,0,1,.538-2.607,4.1,4.1,0,0,1,1.545-1.772,4.388,4.388,0,0,1,2.38-.631,4.026,4.026,0,0,1,2.806,1.011,3.614,3.614,0,0,1,1.192,2.625h-1.624a2.365,2.365,0,0,0-.738-1.6,2.294,2.294,0,0,0-1.637-.626,2.4,2.4,0,0,0-2.027.942,4.422,4.422,0,0,0-.719,2.723v.325a4.334,4.334,0,0,0,.714,2.672A2.414,2.414,0,0,0,396.662-1.215Zm10.084,1.4a4.386,4.386,0,0,1-3.321-1.341,4.976,4.976,0,0,1-1.28-3.586v-.315a6.024,6.024,0,0,1,.571-2.667,4.451,4.451,0,0,1,1.6-1.837,4.012,4.012,0,0,1,2.222-.663,3.759,3.759,0,0,1,3.043,1.29,5.583,5.583,0,0,1,1.085,3.692v.714h-6.8a3.568,3.568,0,0,0,.867,2.4,2.727,2.727,0,0,0,2.111.914,2.989,2.989,0,0,0,1.54-.371,3.87,3.87,0,0,0,1.1-.983l1.048.816A4.215,4.215,0,0,1,406.747.186Zm-.213-9a2.289,2.289,0,0,0-1.744.756,3.675,3.675,0,0,0-.872,2.12h5.028v-.13a3.269,3.269,0,0,0-.705-2.027A2.155,2.155,0,0,0,406.533-8.813ZM412.684-.9a1.075,1.075,0,0,1,.264-.742,1.008,1.008,0,0,1,.793-.3,1.038,1.038,0,0,1,.8.3,1.053,1.053,0,0,1,.274.742,1,1,0,0,1-.274.714,1.056,1.056,0,0,1-.8.288,1.025,1.025,0,0,1-.793-.288A1.016,1.016,0,0,1,412.684-.9Z" transform="translate(739 416.194)" fill="#3b1f71" opacity="0.489"/>
    <g id="Group_57" data-name="Group 57" transform="translate(-37.102 205.039)">
      <path id="Path_77" data-name="Path 77" d="M106.643.8V41.366H99.1V37.83a10.783,10.783,0,0,1-9,4.368c-7.8,0-13.521-6.553-13.521-15.029,0-8.372,5.773-15.132,13.625-15.132a10.694,10.694,0,0,1,8.372,3.8V.8ZM99.258,27.065a7.33,7.33,0,0,0-7.228-7.592c-4.16,0-7.02,3.432-7.02,7.7,0,4.316,2.86,7.644,7.02,7.644s7.228-3.38,7.228-7.748" transform="translate(887.205 119.958)" fill="#3b1f71"/>
      <path id="Path_78" data-name="Path 78" d="M145.591,26.6a15.33,15.33,0,0,1-15.5,15.6c-9.152,0-15.237-6.812-15.237-15.86V.8h8.32V15.78a11,11,0,0,1,8.685-3.744c7.7,0,13.728,6.24,13.728,14.56m-8.372.521c0-4.316-2.912-7.645-7.021-7.645-4.211,0-7.228,3.329-7.228,7.7,0,4.263,2.965,7.643,7.228,7.643,4.109,0,7.021-3.431,7.021-7.695" transform="translate(885.205 119.958)" fill="#3b1f71"/>
      <g id="Group_56" data-name="Group 56">
        <rect id="Rectangle_36" data-name="Rectangle 36" width="8.684" height="28.498" transform="translate(890.456 132.825)" fill="#8448f5"/>
        <path id="Path_75" data-name="Path 75" d="M47.727,23.529V41.366H38.783V25.661c0-4.056-2.029-6.447-5.513-6.447-3.588,0-6.24,2.755-6.24,7.019V41.366H18.086v-28.5h8.476v4.524a11.327,11.327,0,0,1,9.933-5.356c6.812,0,11.232,4.368,11.232,11.492" transform="translate(888.205 119.958)" fill="#8448f5"/>
        <path id="Path_76" data-name="Path 76" d="M65.511,20.045V30.7c0,2.288,1.248,3.692,3.588,3.692a7.416,7.416,0,0,0,2.756-.52v7.488a10.666,10.666,0,0,1-4.368.832c-6.6,0-10.608-4.16-10.608-11.232V20.045H52.771V12.868h4.108V4.912h8.632v7.956h6.344v7.177Z" transform="translate(887.205 119.958)" fill="#8448f5"/>
        <path id="Path_79" data-name="Path 79" d="M8.571,6.89A4.593,4.593,0,1,1,6.89.616,4.593,4.593,0,0,1,8.571,6.89" transform="translate(890.205 119.958)" fill="#8448f5"/>
      </g>
    </g>
    <g id="Group_75" data-name="Group 75" transform="translate(-7)">
      <g id="Group_73" data-name="Group 73" transform="translate(1009.723 309.104)">
        <g id="Group_71" data-name="Group 71">
          <g transform="matrix(1, 0, 0, 1, -263.58, -4.1)" filter="url(#Rectangle_49)">
            <rect id="Rectangle_49-2" data-name="Rectangle 49" width="58" height="58" rx="12" transform="translate(273.86 12)" fill="#fff"/>
          </g>
        </g>
        <g id="Group_72" data-name="Group 72">
          <path id="Path_81" data-name="Path 81" d="M51.979,51.424H38.656a1.025,1.025,0,0,1-.5-.129,1,1,0,0,1-.377-1.363l15.349-27.17a1.876,1.876,0,0,0,.24-.917V20.507a1.859,1.859,0,0,0-1.86-1.86H27.056a1.861,1.861,0,0,0,0,3.721H39.427a1,1,0,0,1,.875,1.5L24.955,51.03a1.927,1.927,0,0,0-.24.917v1.337a1.864,1.864,0,0,0,1.86,1.863h25.4a1.854,1.854,0,0,0,1.32-.54,1.819,1.819,0,0,0,.54-1.32,1.864,1.864,0,0,0-1.86-1.86M48.541,23.868,33.254,50.918a1.019,1.019,0,0,1-.875.506H30.415a1.025,1.025,0,0,1-.5-.129,1,1,0,0,1-.377-1.363L44.815,22.874a1,1,0,0,1,.866-.506H47.67a1.024,1.024,0,0,1,.5.129,1,1,0,0,1,.472.609,1.033,1.033,0,0,1-.094.763" fill="#8448f5"/>
        </g>
      </g>
    </g>
  </g>
</svg>
